<svg width="406" height="359" viewBox="0 0 406 359" fill="none" xmlns="http://www.w3.org/2000/svg">
<g filter="url(#filter0_d_9_19183)">
<mask id="mask0_9_19183" style="mask-type:luminance" maskUnits="userSpaceOnUse" x="14" y="-1" width="392" height="335">
<rect x="14.3235" y="-0.000488281" width="390.95" height="333.75" fill="white"/>
</mask>
<g mask="url(#mask0_9_19183)">
<g filter="url(#filter1_d_9_19183)">
<path d="M214.092 186.825C244.05 210.2 303.048 207.998 282 169.663C282 169.663 327.447 189.46 309.849 146.569C309.849 146.569 347.443 145.832 320.872 118.157C320.872 118.157 348.921 100.252 339.143 85.8617C328.628 70.3862 308.148 95.7587 308.148 95.7587C308.148 95.7587 292.804 64.1775 281.673 99.9117C281.673 99.9117 261.715 71.4887 253.575 113.909C253.575 113.909 220.872 81.3148 214.583 150.198C211.291 186.243 214.092 186.825 214.092 186.825Z" fill="#97CC64"/>
<mask id="mask1_9_19183" style="mask-type:luminance" maskUnits="userSpaceOnUse" x="212" y="80" width="130" height="122">
<path fill-rule="evenodd" clip-rule="evenodd" d="M214.092 186.825C244.05 210.2 303.048 207.998 282 169.663C282 169.663 327.447 189.46 309.849 146.569C309.849 146.569 347.443 145.832 320.872 118.157C320.872 118.157 348.921 100.252 339.143 85.8617C328.628 70.3862 308.148 95.7587 308.148 95.7587C308.148 95.7587 292.804 64.1775 281.673 99.9117C281.673 99.9117 261.715 71.4887 253.575 113.909C253.575 113.909 220.872 81.3148 214.583 150.198C211.291 186.243 214.092 186.825 214.092 186.825Z" fill="white"/>
</mask>
<g mask="url(#mask1_9_19183)">
<path d="M268.758 -64.5085C323.205 -55.9114 332.818 -12.2151 284.294 4.95967C235.77 22.1345 300.938 22.6784 316.838 28.7516C316.838 28.7516 240.001 25.581 298.173 59.4313C356.345 93.2816 279.866 60.5088 284.662 106.365C289.458 152.222 204.927 52.8807 201.592 48.3876C198.256 43.8944 258.056 -51.9055 258.056 -51.9055" fill="#75AA3C"/>
<path d="M209.477 190.584C271.098 152.065 293.664 209.995 252.588 246.786C211.512 283.577 273.003 256.391 289.597 255.35C289.597 255.35 216.418 285.023 280.247 292.163C344.075 299.303 263.302 300.959 280.102 342.087C296.903 383.216 190.715 325.629 186.371 322.817C182.028 320.005 212.654 204.408 212.654 204.408" fill="#75AA3C"/>
</g>
<path d="M326.116 93.4673C320.613 101.646 221.596 184.82 214.092 186.825C214.092 186.825 313.076 106.121 326.116 93.4673Z" fill="#75AA3C"/>
<path d="M294.123 90.4127C291.252 106.973 292.322 113.769 292.322 113.769L294.123 90.4127Z" fill="#75AA3C"/>
<path d="M320.893 129.214C307.625 126.37 302.285 128.032 302.285 128.032L320.893 129.214Z" fill="#75AA3C"/>
<path d="M266.739 97.3246C267.894 123.507 271.431 133.042 271.431 133.042L266.739 97.3246Z" fill="#75AA3C"/>
<path d="M238.477 120.288C239.632 146.471 243.169 156.006 243.169 156.006L238.477 120.288Z" fill="#75AA3C"/>
<path d="M280.812 147.483L305.308 160.321C288.771 148.323 280.812 147.483 280.812 147.483Z" fill="#75AA3C"/>
<path d="M252.527 167.655L277.022 180.493C260.485 168.495 252.527 167.655 252.527 167.655Z" fill="#75AA3C"/>
<path d="M229.631 151.712C229.42 153.314 229.594 154.958 230.132 156.434C230.236 156.723 230.587 156.816 230.79 156.651C231.013 156.476 231.089 156.112 230.962 155.822C230.95 155.786 230.937 155.75 230.924 155.715C230.864 155.544 230.939 155.77 230.909 155.67C230.884 155.587 230.857 155.506 230.833 155.423C230.788 155.266 230.747 155.107 230.71 154.947C230.671 154.777 230.637 154.606 230.608 154.433C230.594 154.347 230.58 154.26 230.568 154.173C230.563 154.134 230.558 154.096 230.553 154.057C230.551 154.043 230.534 153.891 230.541 153.963C230.548 154.024 230.536 153.908 230.535 153.897C230.532 153.858 230.529 153.819 230.526 153.78C230.519 153.692 230.513 153.604 230.509 153.516C230.5 153.34 230.497 153.163 230.498 152.987C230.5 152.82 230.506 152.653 230.516 152.487C230.522 152.399 230.529 152.311 230.537 152.223C230.546 152.11 230.532 152.248 230.541 152.18C230.547 152.132 230.553 152.083 230.559 152.035C230.599 151.723 230.495 151.367 230.223 151.289C229.991 151.223 229.674 151.378 229.631 151.712L229.631 151.712Z" fill="#75AA3C"/>
<path d="M268.364 158.567L273.651 160.248L275.162 160.728C275.417 160.813 275.679 160.623 275.749 160.303C275.819 159.982 275.671 159.65 275.418 159.559L270.131 157.878L268.62 157.398C268.365 157.313 268.103 157.503 268.033 157.823C267.963 158.144 268.111 158.475 268.364 158.567Z" fill="#75AA3C"/>
<path d="M300.583 100.649C300.526 100.987 300.457 101.321 300.374 101.65C300.332 101.814 300.287 101.977 300.239 102.139C300.215 102.22 300.19 102.3 300.164 102.38C300.161 102.39 300.127 102.494 300.145 102.44C300.165 102.381 300.113 102.531 300.115 102.527C299.892 103.158 299.62 103.76 299.302 104.322C299.155 104.582 299.259 105.008 299.474 105.152C299.705 105.311 299.994 105.216 300.133 104.934C300.802 103.745 301.271 102.397 301.511 100.971C301.563 100.662 301.439 100.301 301.175 100.226C300.933 100.156 300.639 100.317 300.583 100.649V100.649Z" fill="#75AA3C"/>
<path d="M130.798 237.338L50.686 208.458L130.798 176.18L210.911 208.458L130.798 237.338Z" fill="#274B69"/>
<mask id="mask2_9_19183" style="mask-type:luminance" maskUnits="userSpaceOnUse" x="50" y="176" width="161" height="62">
<path fill-rule="evenodd" clip-rule="evenodd" d="M130.798 237.338L50.686 208.458L130.798 176.18L210.911 208.458L130.798 237.338Z" fill="white"/>
</mask>
<g mask="url(#mask2_9_19183)">
<path d="M27.8137 202.337C101.856 240.489 85.8406 199.217 122.891 210.285C159.941 221.353 108.587 241.937 108.587 241.937L56.4211 245.788L38.7518 220.353" fill="#0C273A"/>
<path d="M136.696 168.672C127.725 171.998 130.798 176.18 130.798 176.18L223.008 229.07L208.929 187.831L176.247 180.548" fill="#11314B"/>
</g>
<path d="M130.798 205.225C110.193 205.225 93.4889 210.241 93.4889 216.429V252.916H93.7266C93.7266 250.144 167.87 250.144 167.87 252.916H168.108V216.429C168.108 210.241 151.404 205.225 130.798 205.225Z" fill="#274B69"/>
<mask id="mask3_9_19183" style="mask-type:luminance" maskUnits="userSpaceOnUse" x="93" y="205" width="76" height="48">
<path fill-rule="evenodd" clip-rule="evenodd" d="M130.798 205.225C110.193 205.225 93.4889 210.241 93.4889 216.429V252.916H93.7266C93.7266 250.144 167.87 250.144 167.87 252.916H168.108V216.429C168.108 210.241 151.404 205.225 130.798 205.225Z" fill="white"/>
</mask>
<g mask="url(#mask3_9_19183)">
<path d="M84.9226 244.522C97.623 202.178 155.895 207.824 167.849 216.293C179.802 224.761 155.148 196.532 155.148 196.532L92.3935 194.65L82.6814 205.001" fill="#11314B"/>
</g>
<rect x="72.3073" y="198.606" width="1.44344" height="38.9873" fill="#FFC562"/>
<path d="M76.7811 262.342L74.6947 239.458H71.3631L69.2768 262.342C68.9217 264.287 69.5495 266.308 70.8585 267.433C72.1675 268.559 73.8903 268.559 75.1993 267.433C76.5084 266.308 77.1361 264.287 76.7811 262.342Z" fill="#FFC562"/>
<mask id="mask4_9_19183" style="mask-type:luminance" maskUnits="userSpaceOnUse" x="69" y="239" width="8" height="30">
<path fill-rule="evenodd" clip-rule="evenodd" d="M76.7811 262.342L74.6947 239.458H71.3631L69.2768 262.342C68.9217 264.287 69.5495 266.308 70.8585 267.433C72.1675 268.559 73.8903 268.559 75.1993 267.433C76.5084 266.308 77.1361 264.287 76.7811 262.342Z" fill="white"/>
</mask>
<g mask="url(#mask4_9_19183)">
<path d="M63.6168 273.011C70.3405 276.775 76.7047 237.935 76.7047 237.935H69.234L63.2573 243.581V249.227" fill="#D89D35"/>
</g>
<ellipse cx="73.0289" cy="237.594" rx="3.44821" ry="4.34315" fill="#BB393C"/>
<path d="M145.31 228.74L140.284 233.176C140.055 233.378 139.926 233.776 140.091 234.099C140.238 234.386 140.579 234.558 140.824 234.342L145.851 229.905C146.08 229.703 146.209 229.305 146.043 228.982C145.896 228.695 145.555 228.523 145.31 228.74L145.31 228.74Z" fill="#11314B"/>
<path d="M101.614 197C102.158 196.617 102.711 196.258 103.274 195.922C103.552 195.757 103.832 195.597 104.114 195.443C104.15 195.424 104.187 195.404 104.223 195.385C104.247 195.372 104.344 195.32 104.247 195.371C104.32 195.333 104.393 195.295 104.466 195.257C104.611 195.182 104.758 195.108 104.905 195.036C106.058 194.469 107.24 194 108.443 193.632C109.124 193.424 109.812 193.249 110.505 193.107C110.782 193.05 110.961 192.598 110.879 192.277C110.782 191.899 110.517 191.745 110.22 191.806C107.713 192.327 105.274 193.273 102.969 194.618C102.325 194.993 101.693 195.398 101.073 195.834C100.907 195.956 100.806 196.179 100.806 196.421C100.807 196.663 100.911 196.885 101.077 197.005C101.244 197.124 101.449 197.122 101.614 197H101.614Z" fill="#11314B"/>
<path d="M249.876 58.6087C249.876 54.1412 247 50.5197 243.454 50.5197H107.685C104.138 50.5197 101.262 54.1412 101.262 58.6087V68.531H249.876V58.6087Z" fill="#EFF3FC"/>
<mask id="mask5_9_19183" style="mask-type:luminance" maskUnits="userSpaceOnUse" x="101" y="50" width="149" height="19">
<path fill-rule="evenodd" clip-rule="evenodd" d="M249.876 58.6087C249.876 54.1412 247 50.5197 243.454 50.5197H107.685C104.138 50.5197 101.262 54.1412 101.262 58.6087V68.531H249.876V58.6087Z" fill="white"/>
</mask>
<g mask="url(#mask5_9_19183)">
<path d="M82.9534 50.5197C246.861 51.761 248.229 49.3067 249.612 72.3885C250.995 95.4703 254.453 39.7257 254.453 39.7257L204.317 35.3706L104.045 42.7742" fill="#D6DCF2"/>
</g>
<path d="M101.262 68.5311V167.565C101.262 172.032 104.138 175.654 107.685 175.654H243.454C247 175.654 249.876 172.032 249.876 167.565V68.5311L101.262 68.5311Z" fill="#589BF7"/>
<mask id="mask6_9_19183" style="mask-type:luminance" maskUnits="userSpaceOnUse" x="101" y="68" width="149" height="108">
<path fill-rule="evenodd" clip-rule="evenodd" d="M101.262 68.5311V167.565C101.262 172.032 104.138 175.654 107.685 175.654H243.454C247 175.654 249.876 172.032 249.876 167.565V68.5311L101.262 68.5311Z" fill="white"/>
</mask>
<g mask="url(#mask6_9_19183)">
<path d="M97.1239 152.331C100.74 189.149 224.295 179.28 224.295 179.28L98.3294 194.463L88.3846 160.943" fill="#2976DF"/>
</g>
<ellipse cx="109.336" cy="59.31" rx="1.77898" ry="2.2407" fill="#BB393C"/>
<ellipse cx="116.811" cy="59.31" rx="1.77898" ry="2.2407" fill="#FFC562"/>
<ellipse cx="124.287" cy="59.31" rx="1.77898" ry="2.2407" fill="#75AA3C"/>
<rect x="112.955" y="78.5098" width="125.228" height="85.4453" rx="3.34833" fill="#97CC64"/>
<mask id="mask7_9_19183" style="mask-type:luminance" maskUnits="userSpaceOnUse" x="112" y="78" width="127" height="86">
<rect x="112.955" y="78.5098" width="125.228" height="85.4453" rx="3.34833" fill="white"/>
</mask>
<g mask="url(#mask7_9_19183)">
<path d="M254.13 89.2214C261.064 209.42 91.079 160.578 91.079 160.578C91.079 160.578 127.903 194.547 130.496 195.201C133.089 195.854 228.521 188.015 228.521 188.015L249.876 156.658V68.531L244.08 64.5493" fill="#75AA3C"/>
</g>
<ellipse cx="175.569" cy="117.296" rx="19.8617" ry="25.0475" fill="#EFF3FC"/>
<path d="M170.035 117.296V108.067C170.035 107.506 170.272 106.988 170.657 106.707C171.043 106.427 171.518 106.427 171.903 106.707L178.241 111.321L184.578 115.936C184.964 116.217 185.201 116.735 185.201 117.296C185.201 117.856 184.964 118.375 184.578 118.656L178.241 123.27L171.903 127.884C171.518 128.165 171.043 128.165 170.657 127.884C170.272 127.603 170.035 127.085 170.035 126.525V117.296Z" fill="#FFC562"/>
<mask id="mask8_9_19183" style="mask-type:luminance" maskUnits="userSpaceOnUse" x="170" y="106" width="16" height="23">
<path fill-rule="evenodd" clip-rule="evenodd" d="M170.036 117.296V108.067C170.035 107.506 170.272 106.988 170.657 106.707C171.043 106.427 171.518 106.427 171.903 106.707L178.241 111.321L184.579 115.936C184.964 116.217 185.201 116.735 185.201 117.296C185.201 117.856 184.964 118.375 184.579 118.656L178.241 123.27L171.903 127.884C171.518 128.165 171.043 128.165 170.657 127.884C170.272 127.603 170.035 127.085 170.036 126.525V117.296Z" fill="white"/>
</mask>
<g mask="url(#mask8_9_19183)">
<path d="M183.613 111.464C184.014 125.381 160.107 134.871 160.107 134.871L175.569 136.009L195.431 117.296" fill="#D89D35"/>
</g>
<path d="M148.803 62.3046L152.427 60.8165C152.746 60.6856 152.986 60.2506 152.876 59.8215C152.773 59.4203 152.428 59.1162 152.086 59.2566L148.462 60.7447C148.143 60.8756 147.903 61.3105 148.013 61.7396C148.116 62.1408 148.461 62.445 148.803 62.3046Z" fill="#D6DCF2"/>
<path d="M220.707 111.295L218.029 117.771C217.874 118.146 217.943 118.666 218.259 118.877C218.555 119.074 218.972 118.988 219.138 118.587L221.816 112.112C221.971 111.737 221.902 111.216 221.585 111.005C221.29 110.809 220.872 110.895 220.707 111.295L220.707 111.295Z" fill="#75AA3C"/>
<path d="M136.601 140.234C136.956 140.234 137.244 139.872 137.244 139.425C137.244 138.979 136.956 138.617 136.601 138.617C136.247 138.617 135.959 138.979 135.959 139.425C135.963 139.87 136.248 140.229 136.601 140.234Z" fill="#75AA3C"/>
<rect x="224.852" y="270.399" width="19.6862" height="36.7657" fill="#935738"/>
<mask id="mask9_9_19183" style="mask-type:luminance" maskUnits="userSpaceOnUse" x="224" y="270" width="21" height="38">
<rect x="224.852" y="270.399" width="19.6862" height="36.7657" fill="white"/>
</mask>
<g mask="url(#mask9_9_19183)">
<path d="M220.327 280.973C242.757 282.457 242.004 312.068 242.004 312.068L258.112 305.621L255.402 270.399" fill="#6D3417"/>
</g>
<rect x="148.144" y="149.788" width="173.103" height="132.67" rx="3.36069" fill="#935738"/>
<path d="M150.843 149.788H318.547C320.038 149.788 321.246 151.31 321.246 153.188V270.399H148.144V153.188C148.144 151.31 149.352 149.788 150.843 149.788Z" fill="#FFC562"/>
<mask id="mask10_9_19183" style="mask-type:luminance" maskUnits="userSpaceOnUse" x="148" y="149" width="174" height="122">
<path fill-rule="evenodd" clip-rule="evenodd" d="M150.843 149.788H318.547C320.038 149.788 321.246 151.31 321.246 153.188V270.399H148.144V153.188C148.144 151.31 149.352 149.788 150.843 149.788Z" fill="white"/>
</mask>
<g mask="url(#mask10_9_19183)">
<path d="M331.574 129.287L120.219 307.165L321.246 342.026L337.897 115.635" fill="#D89D35"/>
</g>
<path d="M209.861 304.727H259.529C263.434 304.727 266.6 308.714 266.6 313.633V313.805H202.79V313.633C202.79 308.714 205.956 304.727 209.861 304.727V304.727Z" fill="#935738"/>
<path d="M187.474 161.662L185.076 164.205C184.818 164.478 184.836 165.07 185.076 165.348C185.33 165.652 185.729 165.652 185.983 165.348L188.382 162.804C188.639 162.531 188.622 161.94 188.382 161.662C188.127 161.357 187.728 161.357 187.474 161.662V161.662Z" fill="#D89D35"/>
<path d="M305.473 260.73C305.266 260.945 305.057 261.157 304.847 261.367C304.797 261.416 304.747 261.465 304.698 261.514C304.675 261.542 304.65 261.566 304.623 261.587C304.638 261.579 304.734 261.48 304.64 261.571C304.534 261.673 304.427 261.776 304.32 261.877C303.897 262.277 303.467 262.665 303.03 263.041C302.169 263.78 301.283 264.471 300.372 265.111C299.848 265.48 299.317 265.831 298.779 266.165C298.477 266.352 298.37 266.922 298.548 267.271C298.733 267.647 299.119 267.774 299.426 267.561C301.339 266.373 303.162 264.967 304.873 263.362C305.385 262.881 305.887 262.385 306.38 261.872C306.64 261.602 306.619 261.006 306.38 260.73C306.104 260.41 305.75 260.441 305.473 260.73V260.73Z" fill="#D89D35"/>
<path d="M122.131 158.721L116.934 162.766L115.452 163.919C115.167 164.141 115.031 164.651 115.222 165.024C115.404 165.404 115.793 165.532 116.1 165.314L121.297 161.27L122.778 160.117C123.064 159.895 123.199 159.384 123.008 159.011C122.826 158.632 122.437 158.504 122.131 158.721L122.131 158.721Z" fill="#D89D35"/>
<mask id="mask11_9_19183" style="mask-type:luminance" maskUnits="userSpaceOnUse" x="142" y="108" width="175" height="163">
<rect x="142.945" y="108.838" width="173.228" height="161.621" fill="white"/>
</mask>
<g mask="url(#mask11_9_19183)">
<path d="M215.097 179.076C215.097 179.076 210.824 169.982 209.712 169.438C208.6 168.895 203.414 166.118 202.372 165.672C201.331 165.225 198.862 161.128 199.242 160.196C199.622 159.265 202.702 162.513 203.72 162.88C204.737 163.247 210.093 164.324 208.83 162.728C207.566 161.133 205.418 160.571 205.663 159.876C205.907 159.18 211.94 161 212.648 162.395C213.356 163.791 220.285 173.917 220.285 173.917L215.097 179.076Z" fill="#FF9763"/>
<mask id="mask12_9_19183" style="mask-type:luminance" maskUnits="userSpaceOnUse" x="199" y="159" width="22" height="21">
<path fill-rule="evenodd" clip-rule="evenodd" d="M215.097 179.076C215.097 179.076 210.824 169.982 209.712 169.438C208.6 168.895 203.414 166.118 202.372 165.672C201.331 165.225 198.862 161.128 199.242 160.196C199.622 159.265 202.702 162.513 203.72 162.88C204.737 163.247 210.093 164.324 208.83 162.728C207.566 161.133 205.418 160.571 205.663 159.876C205.907 159.18 211.94 161 212.648 162.395C213.356 163.791 220.285 173.917 220.285 173.917L215.097 179.076Z" fill="white"/>
</mask>
<g mask="url(#mask12_9_19183)">
<path d="M221.086 170.507C217.119 167.36 213.134 170.634 209.712 169.438C206.29 168.242 211.966 174.387 211.966 174.387L215.053 172.718" fill="#E84B23"/>
</g>
<path d="M217.147 168.468C212.505 170.155 209.744 180.259 209.744 180.259C209.744 180.259 223.607 203.221 228.679 203.267C233.75 203.312 249.261 184.72 249.261 184.72C249.261 184.72 254.584 156.446 248.662 157.795C245.672 158.477 229.382 182.796 229.382 182.796L217.147 168.468Z" fill="#F0F3FC"/>
<mask id="mask13_9_19183" style="mask-type:luminance" maskUnits="userSpaceOnUse" x="209" y="157" width="43" height="47">
<path fill-rule="evenodd" clip-rule="evenodd" d="M217.147 168.468C212.505 170.155 209.744 180.259 209.744 180.259C209.744 180.259 223.607 203.221 228.679 203.267C233.75 203.312 249.261 184.72 249.261 184.72C249.261 184.72 254.584 156.446 248.662 157.795C245.672 158.477 229.382 182.796 229.382 182.796L217.147 168.468Z" fill="white"/>
</mask>
<g mask="url(#mask13_9_19183)">
<path d="M242.879 175.583C236.656 202.198 225.947 204.86 222.479 211.085C216.198 222.357 248.72 207.855 248.72 207.855L242.879 175.583Z" fill="#D6DCF2"/>
<path d="M212.656 187.694C211.903 177.773 221.537 171.441 221.537 171.441" stroke="#D6DCF2" stroke-width="0.99853" stroke-linecap="round" stroke-linejoin="round"/>
</g>
<path d="M229.382 332.622C229.382 335.392 248.662 328.49 248.662 328.49L254.182 260.081L267.943 201.451L241.782 197.973L229.382 332.622Z" fill="#516DDB"/>
<mask id="mask14_9_19183" style="mask-type:luminance" maskUnits="userSpaceOnUse" x="229" y="197" width="39" height="137">
<path fill-rule="evenodd" clip-rule="evenodd" d="M229.382 332.622C229.382 335.392 248.662 328.49 248.662 328.49L254.182 260.081L267.943 201.451L241.782 197.973L229.382 332.622Z" fill="white"/>
</mask>
<g mask="url(#mask14_9_19183)">
<path d="M248.662 217.687C243.64 214.923 257.54 242.873 252.906 280.038C248.273 317.202 267.752 258.538 267.752 258.538" fill="#3152BA"/>
<path d="M257.279 238.321L251.228 258.04L245.109 327.563" stroke="#3152BA" stroke-width="0.99853" stroke-linecap="round" stroke-linejoin="round"/>
</g>
<path d="M246.958 215.078L263.724 270.477L283.388 331.272C299.548 335.493 299.548 330 299.548 330L280.152 256.335L267.943 201.451L241.782 197.973" fill="#516DDB"/>
<mask id="mask15_9_19183" style="mask-type:luminance" maskUnits="userSpaceOnUse" x="241" y="197" width="59" height="136">
<path fill-rule="evenodd" clip-rule="evenodd" d="M246.958 215.078L263.724 270.477L283.388 331.272C299.548 335.493 299.548 330 299.548 330L280.152 256.335L267.943 201.451L241.782 197.973" fill="white"/>
</mask>
<g mask="url(#mask15_9_19183)">
<path d="M246.81 206.323C244.859 214.104 271.859 207.981 275.429 235.102C278.999 262.223 285.664 225.366 285.664 225.366L271.683 206.118" fill="#3152BA"/>
<path d="M265.597 203.096L275.033 246.987L276.023 251.596L296.898 327.744" stroke="#3152BA" stroke-width="0.665691" stroke-linecap="round" stroke-linejoin="round" stroke-dasharray="1.33"/>
<path d="M264.276 203.096L274.702 251.596L295.576 327.744" stroke="#3152BA" stroke-width="0.99853" stroke-linecap="round" stroke-linejoin="round"/>
</g>
<path d="M240.806 204.192L240.038 210.449C240.038 210.449 256.362 215.892 263.587 211.085L262.534 208.3L240.304 204.192" fill="#FFC562"/>
<path d="M244.28 170.36C240.317 186.449 240.038 205.483 240.038 205.483C254.01 214.777 270.883 209.702 270.883 209.702C266.959 195.069 277.401 160.467 273.72 157.748C270.04 155.03 263.262 149.095 248.662 157.795" fill="#F0F3FC"/>
<mask id="mask16_9_19183" style="mask-type:luminance" maskUnits="userSpaceOnUse" x="240" y="153" width="35" height="59">
<path fill-rule="evenodd" clip-rule="evenodd" d="M244.28 170.36C240.317 186.449 240.038 205.483 240.038 205.483C254.01 214.777 270.883 209.702 270.883 209.702C266.959 195.069 277.401 160.467 273.72 157.748C270.04 155.03 263.262 149.095 248.662 157.795" fill="white"/>
</mask>
<g mask="url(#mask16_9_19183)">
<path d="M255.756 153.162C247.948 169.056 261.754 168.851 269.538 155.543C273.35 149.027 266.266 153.162 266.266 153.162" fill="#FFC562"/>
<path d="M256.772 151.351C248.964 167.245 262.525 165.985 270.554 153.732C274.645 147.489 267.282 151.351 267.282 151.351" fill="#FF9763"/>
<path d="M263.837 172.844C257.54 177.144 272.559 193.113 270.293 206.826C268.026 220.538 275.423 179.076 275.423 179.076L270.293 176.193" fill="#D6DCF2"/>
<path d="M238.699 200.905C249.537 206.404 269.264 207.903 271.067 203.267L238.699 200.905Z" fill="#F0F3FC"/>
</g>
<path d="M273.305 215.078C272.29 218.481 271.729 219.604 271.729 219.604C271.729 219.604 268.526 220.202 268.027 220.538C267.527 220.874 265.362 223.34 265.202 223.37C265.042 223.399 265.657 226.01 267.438 225.236L266.682 228.174C266.682 228.174 268.158 229.996 269.513 229.816C269.513 229.816 272.683 233.189 276.538 229.292C276.538 229.292 279.945 218.979 280.553 218.259C281.162 217.539 273.305 215.078 273.305 215.078Z" fill="#FF9763"/>
<mask id="mask17_9_19183" style="mask-type:luminance" maskUnits="userSpaceOnUse" x="265" y="215" width="16" height="17">
<path fill-rule="evenodd" clip-rule="evenodd" d="M273.305 215.078C272.29 218.481 271.729 219.604 271.729 219.604C271.729 219.604 268.526 220.202 268.027 220.538C267.527 220.874 265.362 223.34 265.202 223.37C265.042 223.399 265.657 226.01 267.438 225.236L266.682 228.174C266.682 228.174 268.158 229.996 269.513 229.816C269.513 229.816 272.683 233.189 276.538 229.292C276.538 229.292 279.945 218.979 280.553 218.259C281.162 217.539 273.305 215.078 273.305 215.078Z" fill="white"/>
</mask>
<g mask="url(#mask17_9_19183)">
<path d="M273.305 215.078C271.028 215.318 280.137 225.776 280.137 225.776L280.553 218.259" fill="#E84B23"/>
</g>
<path d="M261.754 171.445L274.696 192.412L272.089 213.747C275.703 217.968 281.153 223.426 282.092 221.249C282.94 219.284 287.919 189.851 287.248 187.208C284.617 176.843 278.039 162.634 273.72 157.748" fill="#F0F3FC"/>
<mask id="mask18_9_19183" style="mask-type:luminance" maskUnits="userSpaceOnUse" x="261" y="157" width="27" height="65">
<path fill-rule="evenodd" clip-rule="evenodd" d="M261.754 171.445L274.696 192.412L272.089 213.747C275.703 217.968 281.153 223.426 282.092 221.249C282.94 219.284 287.919 189.851 287.248 187.208C284.617 176.843 278.039 162.634 273.72 157.748" fill="white"/>
</mask>
<g mask="url(#mask18_9_19183)">
<path d="M271.683 206.118C279.494 214.368 283.082 217.591 287.31 215.884" stroke="#D6DCF2" stroke-width="0.99853" stroke-linecap="round" stroke-linejoin="round"/>
</g>
<path d="M266.155 155.003L267.128 143.436L259.332 142.672L256.205 155.757" fill="#FF9763"/>
<mask id="mask19_9_19183" style="mask-type:luminance" maskUnits="userSpaceOnUse" x="256" y="142" width="12" height="14">
<path fill-rule="evenodd" clip-rule="evenodd" d="M266.155 155.003L267.128 143.436L259.332 142.672L256.205 155.757" fill="white"/>
</mask>
<g mask="url(#mask19_9_19183)">
<path d="M253.338 153.361C262.714 155.731 255.989 149.297 259.68 149.071C260.695 149.009 261.059 143.069 261.059 143.069L258.066 143.785" fill="#E84B23"/>
</g>
<path d="M265.618 142.237L265.566 133.765L260.969 123.523C257.41 130.742 244.157 149.322 260.391 147.959" fill="#FF9763"/>
<path d="M266.381 143.197C263.41 143.145 261.978 134.926 264.159 133.648C264.159 133.648 259.143 133.588 257.148 128.851C246.319 125.174 252.215 109.615 259.74 118.859C265.502 118.046 269.673 123.976 268.252 127.499C278.991 126.339 275.235 143.354 266.381 143.197Z" fill="#4B4D5C"/>
<path d="M265.694 146.875C271.899 144.377 270.854 135.27 262.698 141.384L265.694 146.875Z" fill="#FF9763"/>
<path d="M259.176 122.935C259.101 124.065 259.273 125.199 259.673 126.215C259.808 126.503 260.102 126.6 260.332 126.433C260.555 126.258 260.631 125.894 260.504 125.603C260.48 125.54 260.456 125.476 260.433 125.412C260.376 125.254 260.466 125.525 260.416 125.362C260.381 125.247 260.347 125.132 260.317 125.015C260.256 124.78 260.209 124.541 260.173 124.299C260.166 124.247 260.16 124.194 260.153 124.142C260.144 124.071 260.144 124.073 260.152 124.147C260.149 124.112 260.146 124.077 260.143 124.042C260.133 123.919 260.126 123.796 260.122 123.673C260.115 123.427 260.12 123.18 260.138 122.935C260.161 122.618 259.901 122.315 259.657 122.329C259.394 122.337 259.183 122.604 259.176 122.935H259.176Z" fill="#373947"/>
<path d="M270.169 134.352L270.195 134.482C270.234 134.631 270.312 134.759 270.416 134.844C270.47 134.888 270.532 134.913 270.595 134.916C270.659 134.934 270.725 134.93 270.787 134.905L270.902 134.844C270.974 134.792 271.033 134.717 271.075 134.627L271.123 134.482C271.146 134.377 271.146 134.265 271.123 134.16L271.097 134.03C271.059 133.881 270.98 133.753 270.876 133.668C270.822 133.624 270.76 133.599 270.697 133.596C270.633 133.578 270.567 133.582 270.505 133.607L270.39 133.668C270.319 133.72 270.259 133.795 270.217 133.885L270.169 134.03C270.146 134.135 270.146 134.247 270.169 134.352Z" fill="#373947"/>
<path d="M257.398 136.306C257.258 136.156 257.171 135.943 257.156 135.713C257.141 135.482 257.199 135.254 257.317 135.077L258.073 133.954C258.32 133.587 258.757 133.541 259.048 133.853C259.34 134.164 259.376 134.714 259.129 135.081L258.373 136.204C258.255 136.381 258.085 136.49 257.902 136.509C257.719 136.529 257.538 136.455 257.398 136.306L257.398 136.306Z" fill="#190000"/>
<path d="M260.075 131.126C261.73 132.739 261.525 133.951 260.438 133.028C259.351 132.104 258.994 130.072 260.075 131.126Z" fill="#190000"/>
<path d="M256.756 133.624C253.757 133.119 252.742 136.463 254.502 137.289L256.756 133.624Z" fill="#FF9763"/>
<ellipse opacity="0.27" cx="1.39194" cy="1.69134" rx="1.39194" ry="1.69134" transform="matrix(0.424781 -0.905296 0.802157 0.597113 257.117 138.977)" fill="#E84B23"/>
<path d="M257.468 139.792C256.595 140.166 255.63 139.911 254.949 139.128" stroke="#993443" stroke-width="0.99853" stroke-linecap="round" stroke-linejoin="round"/>
<path d="M265.768 142.959C265.787 142.947 265.805 142.935 265.824 142.925L265.709 142.986C265.757 142.962 265.807 142.945 265.858 142.935L265.73 142.957C265.792 142.947 265.854 142.947 265.915 142.957L265.787 142.936C265.849 142.947 265.91 142.968 265.968 142.997L265.853 142.936C265.915 142.969 265.974 143.012 266.028 143.064L265.93 142.969C265.975 143.013 266.015 143.064 266.05 143.121L265.975 142.998C266.005 143.05 266.031 143.107 266.051 143.166L266.003 143.022C266.021 143.078 266.033 143.137 266.04 143.197L266.023 143.035C266.029 143.103 266.03 143.17 266.023 143.237L266.041 143.076C266.031 143.157 266.014 143.236 265.989 143.311L266.038 143.166C266.011 143.241 265.978 143.312 265.938 143.377L266.013 143.255C265.976 143.313 265.934 143.366 265.887 143.413L265.985 143.318C265.942 143.359 265.896 143.394 265.847 143.421L265.962 143.36C265.912 143.387 265.86 143.405 265.807 143.415L265.935 143.394L265.918 143.396C265.792 143.402 265.671 143.465 265.578 143.574C265.39 143.81 265.39 144.194 265.578 144.431C265.667 144.547 265.79 144.611 265.918 144.608C266.078 144.591 266.234 144.535 266.376 144.442C266.481 144.37 266.576 144.277 266.657 144.166C266.848 143.906 266.965 143.571 266.988 143.217C267.037 142.553 266.631 141.967 266.142 141.793C265.854 141.691 265.546 141.734 265.282 141.913C265.055 142.083 264.978 142.452 265.11 142.742C265.247 143.025 265.538 143.121 265.768 142.959L265.768 142.959Z" fill="#373947"/>
<path d="M251.76 181.372C259.008 185.691 245.204 192.981 250.799 202.228L252.603 201.977C245.55 194.736 261.366 185.363 252.316 180.69L251.76 181.372Z" fill="#97CC64"/>
<path d="M252.206 178.869C249.908 164.569 259.806 163.741 253.584 178.376L252.206 178.869Z" fill="#F08059"/>
<path d="M252.784 180.266C255.082 194.566 245.183 195.394 251.405 180.759L252.784 180.266Z" fill="#F08059"/>
<path d="M253.115 178.878C264.512 170.281 261.597 185.066 252.988 180.803L253.115 178.878Z" fill="#F08059"/>
<path d="M251.875 180.257C240.477 188.854 243.392 174.069 252.002 178.332L251.875 180.257Z" fill="#F08059"/>
<path d="M252.729 178.586C259.163 162.395 264.101 172.264 253.614 179.599L252.729 178.586Z" fill="#F08059"/>
<path d="M252.261 180.549C245.827 196.74 240.888 186.871 251.376 179.536L252.261 180.549Z" fill="#F08059"/>
<path d="M253.138 179.574C262.822 183.606 253.761 194.646 252.073 181.284L253.138 179.574Z" fill="#F08059"/>
<path d="M251.852 179.561C242.168 175.529 251.228 164.489 252.917 177.851L251.852 179.561Z" fill="#F08059"/>
<ellipse cx="4.79357" cy="3.03742" rx="4.79357" ry="3.03742" transform="matrix(0.476982 -0.878913 0.757828 0.652454 247.973 181.79)" fill="#F0F3FC"/>
<path d="M252.415 194.64C256.365 198.001 259.191 190.156 259.191 190.156C259.191 190.156 253.291 188.359 252.415 194.64Z" fill="#97CC64"/>
<path d="M260.89 214.216C261.574 222.239 267.646 219.719 267.646 219.719" stroke="#3152BA" stroke-width="0.912119" stroke-linecap="round" stroke-linejoin="round"/>
<ellipse cx="240.505" cy="264.936" rx="3.91398" ry="2.14229" fill="#FF9763"/>
<path d="M274.711 193.3C275.52 193.682 276.373 193.896 277.236 193.934C277.501 193.932 277.715 193.662 277.717 193.328C277.712 192.996 277.499 192.729 277.236 192.722C277.027 192.712 276.82 192.689 276.613 192.661C276.506 192.647 276.679 192.676 276.563 192.653C276.519 192.645 276.475 192.637 276.431 192.628C276.328 192.607 276.225 192.583 276.123 192.556C275.729 192.453 275.343 192.311 274.967 192.131C274.731 192.018 274.429 192.256 274.375 192.554C274.311 192.876 274.459 193.203 274.711 193.3V193.3Z" fill="#D6DCF2"/>
<path d="M228.908 182.672L229.613 186.29C229.686 186.61 229.949 186.799 230.205 186.713C230.458 186.618 230.606 186.289 230.541 185.967L229.836 182.35C229.763 182.029 229.5 181.841 229.244 181.927C228.991 182.021 228.843 182.351 228.908 182.672Z" fill="#D6DCF2"/>
</g>
<rect x="185.717" y="312.81" width="114.846" height="26.5359" transform="rotate(-180 185.717 312.81)" fill="#BB393C"/>
<mask id="mask20_9_19183" style="mask-type:luminance" maskUnits="userSpaceOnUse" x="70" y="286" width="116" height="27">
<rect x="185.717" y="312.811" width="114.846" height="26.5359" transform="rotate(-180 185.717 312.811)" fill="white"/>
</mask>
<g mask="url(#mask20_9_19183)">
<rect x="171.329" y="316.37" width="14.6448" height="34.6261" transform="rotate(-180 171.329 316.37)" fill="#90282A"/>
<rect x="152.92" y="316.37" width="2.74055" height="34.6261" transform="rotate(-180 152.92 316.37)" fill="#90282A"/>
<path d="M69.6179 307.129C65.8497 311.228 143.441 311.228 141.728 312.954C140.016 314.68 72.701 319.427 72.701 319.427L66.5348 308.208" fill="#90282A"/>
<path d="M112.11 288.801C105.978 288.512 147.044 306.653 148.2 306.976C149.357 307.3 146.409 295.435 146.409 295.435L138.188 292.523" fill="#90282A"/>
</g>
<path d="M95.8804 285.608L155.145 302.652C155.145 302.652 156.344 287.334 158.913 285.608H95.8804Z" fill="#EFF3FC"/>
<path d="M174.034 252.494H87.4684C90.8395 261.044 87.4684 285.608 87.4684 285.608H174.034C174.034 285.608 170.663 261.044 174.034 252.494Z" fill="#EFF3FC"/>
<mask id="mask21_9_19183" style="mask-type:luminance" maskUnits="userSpaceOnUse" x="87" y="252" width="88" height="34">
<path fill-rule="evenodd" clip-rule="evenodd" d="M174.034 252.494H87.4684C90.8395 261.044 87.4684 285.608 87.4684 285.608H174.034C174.034 285.608 170.663 261.044 174.034 252.494Z" fill="white"/>
</mask>
<g mask="url(#mask21_9_19183)">
<path d="M86.2716 265.311L88.0192 265.396L117.958 266.865L84.5233 269.051" fill="#D6DCF2"/>
<path d="M187.492 274.803L185.745 274.717L155.806 273.248L189.24 271.063" fill="#D6DCF2"/>
<path d="M188.366 258.983L186.619 258.897L92.5851 257.386L190.115 255.243" fill="#D6DCF2"/>
</g>
<rect x="84.0962" y="246.275" width="93.3104" height="6.21872" fill="#75AA3C"/>
<mask id="mask22_9_19183" style="mask-type:luminance" maskUnits="userSpaceOnUse" x="84" y="246" width="94" height="7">
<rect x="84.0962" y="246.275" width="93.3104" height="6.21872" fill="white"/>
</mask>
<g mask="url(#mask22_9_19183)">
<path d="M78.6318 249.384L192.296 252.494L84.0962 261.677" fill="#97CC64"/>
</g>
<rect x="84.0962" y="280.087" width="93.3104" height="6.21872" fill="#75AA3C"/>
<mask id="mask23_9_19183" style="mask-type:luminance" maskUnits="userSpaceOnUse" x="84" y="280" width="94" height="7">
<rect x="84.0962" y="280.087" width="93.3104" height="6.21872" fill="white"/>
</mask>
<g mask="url(#mask23_9_19183)">
<path d="M80.5077 285.608C87.4685 285.608 164.094 283.964 164.608 286.306C165.122 288.648 88.9006 292.099 88.9006 292.099L73.4406 285.608" fill="#75AA3C"/>
</g>
<path d="M140.874 271.853L147.274 270.182C147.516 270.096 147.658 269.782 147.592 269.477C147.521 269.176 147.274 269 147.032 269.076L140.632 270.747C140.391 270.833 140.249 271.147 140.314 271.452C140.386 271.753 140.632 271.929 140.874 271.853Z" fill="#D6DCF2"/>
<path d="M95.4392 301.899H101.422C101.673 301.899 101.877 301.642 101.877 301.325C101.877 301.008 101.673 300.752 101.422 300.752H95.4392C95.1877 300.752 94.9839 301.008 94.9839 301.325C94.9839 301.642 95.1877 301.899 95.4392 301.899Z" fill="#90282A"/>
<path d="M121.12 29H70.8551C67.0741 29.0139 64.0118 32.8711 64.0007 37.6334V77.9217C64.0118 82.684 67.0741 86.5412 70.8551 86.5551H85.3849L94.651 97.5585C95.4014 98.4495 96.5731 98.4493 97.3232 97.5579L106.583 86.5551H121.12C124.901 86.5412 127.963 82.684 127.974 77.9217V37.6334C127.968 32.8684 124.903 29.0076 121.12 29H121.12Z" fill="#9A7ED9"/>
<mask id="mask24_9_19183" style="mask-type:luminance" maskUnits="userSpaceOnUse" x="64" y="29" width="64" height="70">
<path fill-rule="evenodd" clip-rule="evenodd" d="M121.12 29H70.8551C67.0741 29.0139 64.0118 32.8711 64.0007 37.6334V77.9217C64.0118 82.684 67.0741 86.5412 70.8551 86.5551H85.3849L94.651 97.5585C95.4014 98.4495 96.5731 98.4493 97.3232 97.5579L106.583 86.5551H121.12C124.901 86.5412 127.963 82.684 127.974 77.9217V37.6334C127.968 32.8684 124.903 29.0076 121.12 29H121.12Z" fill="white"/>
</mask>
<g mask="url(#mask24_9_19183)">
<path d="M129.836 66.1575C128.9 85.8616 106.583 86.5551 106.583 86.5551L119.763 99.4221L135.648 80.0383" fill="#6F4EB9"/>
<path d="M61.0262 55.2035C59.856 31.6203 84.1506 29 84.1506 29L56.5793 24.7455" fill="#6F4EB9"/>
</g>
<path d="M109.052 47.1436C105.503 42.6732 99.9004 42.2919 95.9875 45.9729C92.118 42.3327 86.5957 42.6652 83.0413 46.9967C79.0186 51.8988 79.1453 60.2172 83.1032 65.2024L93.5375 78.3448C94.8929 80.0421 97.0822 80.0421 98.4376 78.3448L109.052 64.975C112.946 60.0714 112.946 52.0472 109.052 47.1436H109.052Z" fill="#EFF3FC"/>
<path d="M118.185 42.4612C119.117 43.8949 119.75 45.5996 120.025 47.42C120.062 47.5862 120.199 47.6837 120.331 47.6393C120.462 47.5903 120.539 47.4198 120.506 47.253C120.207 45.328 119.531 43.5279 118.538 42.017C118.44 41.8956 118.283 41.8956 118.185 42.017C118.091 42.1412 118.091 42.337 118.185 42.4612Z" fill="#6F4EB9"/>
<path d="M93.7873 65.2248C93.8532 65.9033 94.0911 66.5368 94.4657 67.0314C94.5632 67.1536 94.7208 67.1534 94.818 67.0309C94.9153 66.9084 94.9154 66.7099 94.8184 66.5872C94.7803 66.5373 94.7434 66.4862 94.7083 66.433C94.6995 66.4197 94.6909 66.4063 94.6822 66.3929C94.6406 66.3285 94.6992 66.4239 94.6771 66.3847C94.6613 66.3565 94.6447 66.329 94.629 66.3005C94.5646 66.1832 94.5073 66.0599 94.4577 65.9316C94.4457 65.9005 94.4344 65.8691 94.4231 65.8376C94.4123 65.8075 94.4161 65.8154 94.424 65.841C94.419 65.8249 94.4137 65.809 94.4087 65.7929C94.3889 65.7284 94.3709 65.6631 94.3549 65.5969C94.3378 65.5267 94.3231 65.4557 94.3105 65.3839C94.3046 65.3501 94.2992 65.3162 94.2943 65.2822C94.2913 65.2613 94.2782 65.1495 94.286 65.2248C94.2835 65.1421 94.2576 65.0633 94.2129 65.0027C94.1659 64.9442 94.1026 64.9112 94.0366 64.9106C93.9161 64.9174 93.7689 65.0503 93.7872 65.2247L93.7873 65.2248Z" fill="#D6DCF2"/>
<path d="M312.347 205.756C312.347 205.756 314.768 201.281 315.133 201.061C315.497 200.842 318.259 198.333 318.51 198.283C318.762 198.233 318.083 197.234 316.448 198.682C316.448 198.682 317.163 195.825 318.087 194.816C319.012 193.807 316.605 192.829 313.79 197.696C312.546 199.823 311.098 201.747 309.479 203.426L312.347 205.756Z" fill="#FF9763"/>
<mask id="mask25_9_19183" style="mask-type:luminance" maskUnits="userSpaceOnUse" x="309" y="193" width="10" height="13">
<path fill-rule="evenodd" clip-rule="evenodd" d="M312.347 205.756C312.347 205.756 314.768 201.281 315.133 201.061C315.497 200.842 318.259 198.333 318.51 198.283C318.762 198.233 318.083 197.234 316.448 198.682C316.448 198.682 317.163 195.825 318.087 194.816C319.012 193.807 316.605 192.829 313.79 197.696C312.546 199.823 311.098 201.747 309.479 203.426L312.347 205.756Z" fill="white"/>
</mask>
<g mask="url(#mask25_9_19183)">
<path d="M312.087 199.874C312.493 199.052 314.948 202.624 315.162 203.435C315.294 203.886 315.166 204.393 314.852 204.666L312.826 203.525" fill="#E84B23"/>
</g>
<path d="M315.419 180.496L309.727 193.393L348.293 222.853C349.845 224.039 351.741 223.555 352.527 221.772L355.37 215.331C356.157 213.548 355.537 211.142 353.985 209.956L315.419 180.496Z" fill="#FFC562"/>
<mask id="mask26_9_19183" style="mask-type:luminance" maskUnits="userSpaceOnUse" x="309" y="180" width="47" height="44">
<path fill-rule="evenodd" clip-rule="evenodd" d="M315.419 180.496L309.727 193.393L348.293 222.853C349.845 224.039 351.741 223.555 352.527 221.772L355.37 215.331C356.157 213.548 355.537 211.142 353.985 209.956L315.419 180.496Z" fill="white"/>
</mask>
<g mask="url(#mask26_9_19183)">
<path d="M310.265 188.084L309.383 190.083L345.946 218.013L346.828 216.014L310.265 188.084Z" fill="#D89D35"/>
<path d="M311.852 184.488L310.97 186.487L347.533 214.418L348.415 212.419L311.852 184.488Z" fill="#D89D35"/>
<path d="M313.375 181.039L312.492 183.038L349.055 210.968L349.937 208.969L313.375 181.039Z" fill="#D89D35"/>
<path d="M352.692 206.117L345.08 223.364L350.98 227.871L358.592 210.624L352.692 206.117Z" fill="#935738"/>
<path d="M352.16 207.955L345.228 223.662L343.9 222.648L350.832 206.941L352.16 207.955Z" fill="#F0F3FC"/>
</g>
<path d="M304.742 180.963C304.538 181.4 304.527 181.94 304.713 182.39L309.727 193.393L315.419 180.496L305.67 180.221C305.308 180.211 304.947 180.5 304.742 180.963Z" fill="#FFCCCC"/>
<mask id="mask27_9_19183" style="mask-type:luminance" maskUnits="userSpaceOnUse" x="304" y="180" width="12" height="14">
<path fill-rule="evenodd" clip-rule="evenodd" d="M304.742 180.963C304.538 181.4 304.527 181.94 304.713 182.39L309.727 193.393L315.419 180.496L305.67 180.221C305.308 180.211 304.947 180.5 304.742 180.963Z" fill="white"/>
</mask>
<g mask="url(#mask27_9_19183)">
<path d="M315.451 177.01L307.459 195.12L309.712 196.84L317.704 178.731L315.451 177.01Z" fill="#FF999A"/>
<ellipse cx="6.36711" cy="4.81873" rx="6.36711" ry="4.81873" transform="matrix(0.254983 -0.966946 0.922527 0.385932 296.811 184.916)" fill="#3A3531"/>
</g>
<path d="M308.785 185.368L309.344 185.152C309.401 185.133 309.444 185.076 309.459 185.005C309.474 184.934 309.457 184.858 309.416 184.806C309.374 184.754 309.313 184.734 309.257 184.754L308.697 184.969C308.641 184.989 308.597 185.045 308.582 185.116C308.568 185.188 308.584 185.264 308.626 185.316C308.668 185.367 308.728 185.387 308.785 185.368Z" fill="#FF999A"/>
<path d="M324.372 293.23L325.448 302.004L323.421 306.82L322.825 304.437L321.099 294.64L324.372 293.23Z" fill="#FF9763"/>
<mask id="mask28_9_19183" style="mask-type:luminance" maskUnits="userSpaceOnUse" x="321" y="293" width="5" height="14">
<path fill-rule="evenodd" clip-rule="evenodd" d="M324.372 293.23L325.448 302.004L323.421 306.82L322.825 304.437L321.099 294.64L324.372 293.23Z" fill="white"/>
</mask>
<g mask="url(#mask28_9_19183)">
<path d="M321.394 298.043C320.365 300.596 325.716 298.909 325.716 298.909L325.233 296.675L321.554 297.495" fill="#E84B23"/>
</g>
<path d="M322.57 303.455C322.57 303.455 324.941 304.303 325.164 299.686L326.1 301.624C326.554 302.563 326.608 303.724 326.245 304.724L322.52 315C321.665 314.578 321.203 313.354 321.47 312.203C321.924 310.238 323.158 306.105 322.57 303.455Z" fill="#3A3530"/>
<path d="M331.221 272.518L337.861 274.044L340.637 278.143H338.611L331.226 276.679L331.221 272.518Z" fill="#FF9763"/>
<mask id="mask29_9_19183" style="mask-type:luminance" maskUnits="userSpaceOnUse" x="331" y="272" width="10" height="7">
<path fill-rule="evenodd" clip-rule="evenodd" d="M331.221 272.518L337.861 274.044L340.637 278.143H338.611L331.226 276.679L331.221 272.518Z" fill="white"/>
</mask>
<g mask="url(#mask29_9_19183)">
<path d="M333.651 273.284C336.029 272.326 334.97 276.681 335.806 277.912C336.642 279.143 332.87 278.55 332.87 278.55L333.037 273.854" fill="#E84B23"/>
</g>
<path d="M337.946 278.103C337.946 278.103 339.159 275.28 335.926 273.494L338.432 272.868C338.861 272.761 339.304 272.936 339.608 273.333L346.196 281.937C345.632 282.862 344.581 283.038 343.845 282.332C342.589 281.123 340.038 278.237 337.946 278.103Z" fill="#3A3530"/>
<path d="M320.192 298.969C322.069 300.157 327.376 296.772 327.376 296.772L321.769 273.933L322.117 240.205L313.264 241.441L313.861 272.777C313.876 273.216 313.936 273.651 314.04 274.071L320.192 298.969Z" fill="#97CC64"/>
<mask id="mask30_9_19183" style="mask-type:luminance" maskUnits="userSpaceOnUse" x="313" y="240" width="15" height="60">
<path fill-rule="evenodd" clip-rule="evenodd" d="M320.192 298.969C322.069 300.157 327.376 296.772 327.376 296.772L321.769 273.933L322.117 240.205L313.264 241.441L313.861 272.777C313.876 273.216 313.936 273.651 314.04 274.071L320.192 298.969Z" fill="white"/>
</mask>
<g mask="url(#mask30_9_19183)">
<path d="M325.448 302.004L317.968 269.713" stroke="#2F7F48" stroke-width="0.65" stroke-linecap="round" stroke-linejoin="round"/>
<path d="M326.745 302.004L319.264 269.713" stroke="#2F7F48" stroke-width="0.65" stroke-linecap="round" stroke-linejoin="round"/>
<path d="M321.039 251.256C316.732 267.101 312.123 268.264 310.804 271.719C309.486 275.175 306.87 278.427 324.901 281.891C342.931 285.355 329.553 264.411 329.553 264.411" fill="#75AA3C"/>
</g>
<path d="M317.546 242.595L322.117 240.205C324.722 241.306 326.703 248.168 326.358 251.585L323.343 270.339L334.629 271.262C334.629 271.262 334.968 278.525 334.292 279.712L318.566 278.797C317.573 278.754 316.639 278.196 315.983 277.256C315.328 276.316 315.01 275.076 315.105 273.83L316.607 254.603" fill="#97CC64"/>
<mask id="mask31_9_19183" style="mask-type:luminance" maskUnits="userSpaceOnUse" x="315" y="240" width="20" height="40">
<path fill-rule="evenodd" clip-rule="evenodd" d="M317.546 242.595L322.117 240.205C324.722 241.306 326.703 248.168 326.358 251.585L323.343 270.339L334.629 271.262C334.629 271.262 334.968 278.525 334.292 279.712L318.566 278.797C317.573 278.754 316.639 278.196 315.983 277.256C315.328 276.316 315.01 275.076 315.105 273.83L316.607 254.603" fill="white"/>
</mask>
<g mask="url(#mask31_9_19183)">
<path d="M315.087 246.378C335.155 239.81 319.301 269.927 324.007 270.702C328.712 271.477 329.581 238.904 329.581 238.904L327.376 236.85H313.264" fill="#75AA3C"/>
<path d="M336.019 274.193L321.58 273.314C321.19 273.29 320.828 273.051 320.59 272.66C320.353 272.269 320.264 271.767 320.348 271.286L323.706 251.96C323.97 250.531 323.903 249.036 323.513 247.654L321.691 241.185" stroke="#2F7F48" stroke-width="0.65" stroke-linecap="round" stroke-linejoin="round"/>
<path d="M337.375 272.98L322.317 272.063C322.081 272.048 321.862 271.903 321.718 271.667C321.574 271.431 321.521 271.126 321.571 270.835L325.062 250.746C325.326 249.317 325.259 247.823 324.869 246.441L323.047 239.972" stroke="#2F7F48" stroke-width="0.65" stroke-linecap="round" stroke-linejoin="round"/>
</g>
<path d="M341.704 220.308C341.704 220.308 343.175 218.203 343.303 217.805C343.432 217.407 345.014 214.318 345.03 214.053C345.046 213.787 345.821 214.401 344.911 216.227C344.911 216.227 346.912 215.227 347.564 214.178C348.215 213.128 349.181 216.19 345.903 219.547C343.591 221.914 341.112 225.835 341.112 225.835L341.704 220.308Z" fill="#FF9763"/>
<mask id="mask32_9_19183" style="mask-type:luminance" maskUnits="userSpaceOnUse" x="341" y="213" width="8" height="13">
<path fill-rule="evenodd" clip-rule="evenodd" d="M341.704 220.308C341.704 220.308 343.175 218.203 343.303 217.805C343.432 217.407 345.014 214.318 345.03 214.053C345.046 213.787 345.821 214.401 344.911 216.227C344.911 216.227 346.912 215.227 347.564 214.178C348.215 213.128 349.181 216.19 345.903 219.547C343.591 221.914 341.112 225.835 341.112 225.835L341.704 220.308Z" fill="white"/>
</mask>
<g mask="url(#mask32_9_19183)">
<path d="M341.704 218.446C343.565 221.595 344.551 221.508 344.551 221.508L343.55 223.142L341.166 223.879L340.26 219.481" fill="#E84B23"/>
</g>
<path d="M312.119 199.167C312.922 199.167 314.675 204.294 314.675 204.294L310.779 212.287L317.028 221.312L313.301 230.261L305.1 214.101C304.374 212.858 304.413 211.152 305.195 209.964L312.119 199.167Z" fill="#F0F3FC"/>
<mask id="mask33_9_19183" style="mask-type:luminance" maskUnits="userSpaceOnUse" x="304" y="199" width="14" height="32">
<path fill-rule="evenodd" clip-rule="evenodd" d="M312.119 199.167C312.922 199.167 314.675 204.294 314.675 204.294L310.779 212.287L317.028 221.312L313.301 230.261L305.1 214.101C304.374 212.858 304.413 211.152 305.194 209.964L312.119 199.167Z" fill="white"/>
</mask>
<g mask="url(#mask33_9_19183)">
<path d="M303.745 215.686C316.616 231.535 315.087 224.456 315.087 224.456L315.953 232.895H309.478L305.938 223.142" fill="#D6DCF2"/>
<ellipse cx="303.668" cy="211.732" rx="2.23628" ry="3.95372" fill="#D6DCF2"/>
<path d="M309.189 201.05C311.79 198.066 313.602 208.012 313.602 208.012L309.189 201.05Z" fill="#F0F3FC"/>
</g>
<path d="M317.824 237.682C324.42 245.149 308.845 249.244 312.185 255.768" stroke="#190000" stroke-width="0.65" stroke-linecap="round" stroke-linejoin="round"/>
<rect width="0.576938" height="1.35588" rx="0.288469" transform="matrix(0.697116 -0.716958 0.543976 0.839101 311.861 255.776)" fill="#F0F3FC"/>
<path d="M317.949 234.506C325.501 240.363 310.762 247.91 314.977 253.573" stroke="#190000" stroke-width="0.65" stroke-linecap="round" stroke-linejoin="round"/>
<rect width="0.601007" height="1.30207" rx="0.300504" transform="matrix(0.560318 -0.828277 0.681715 0.731618 314.659 253.654)" fill="#F0F3FC"/>
<path d="M312.679 225.424C312.679 225.424 309.212 242.853 311.774 245.813C314.62 249.102 324.892 242.873 324.892 242.873C324.892 242.873 322.891 232.654 326.187 228.488L326.872 225.051C326.735 223.973 326.081 223.115 325.232 222.897L316.23 220.593" fill="#F0F3FC"/>
<mask id="mask34_9_19183" style="mask-type:luminance" maskUnits="userSpaceOnUse" x="310" y="220" width="17" height="27">
<path fill-rule="evenodd" clip-rule="evenodd" d="M312.679 225.424C312.679 225.424 309.212 242.853 311.774 245.813C314.62 249.102 324.892 242.873 324.892 242.873C324.892 242.873 322.891 232.654 326.187 228.488L326.872 225.051C326.735 223.973 326.081 223.115 325.232 222.897L316.23 220.593" fill="white"/>
</mask>
<g mask="url(#mask34_9_19183)">
<path d="M321.691 230.81C328.159 240.064 316.044 248.634 311.277 240.205C306.51 231.775 307.94 247.146 307.94 247.146L317.951 248.707L326.872 244.624L327.347 238.74L326.341 230.261" fill="#D6DCF2"/>
<path d="M317.109 220.065C313.503 225.177 316.1 227.89 323.678 221.176C331.255 214.463 317.109 220.065 317.109 220.065Z" fill="#FF9763"/>
</g>
<path d="M325.542 223.009L333.822 224.461L341.786 219.547C341.786 219.547 342.406 219.547 343.934 224.804L336.467 230.78C335.693 231.495 334.729 231.803 333.777 231.639L321.039 230.765" fill="#F0F3FC"/>
<mask id="mask35_9_19183" style="mask-type:luminance" maskUnits="userSpaceOnUse" x="321" y="219" width="23" height="13">
<path fill-rule="evenodd" clip-rule="evenodd" d="M325.542 223.009L333.822 224.461L341.786 219.547C341.786 219.547 342.406 219.547 343.934 224.804L336.467 230.78C335.693 231.495 334.729 231.803 333.777 231.639L321.039 230.765" fill="white"/>
</mask>
<g mask="url(#mask35_9_19183)">
<ellipse cx="335.384" cy="231.972" rx="3.30962" ry="1.71068" fill="#D6DCF2"/>
<path d="M339.127 219.547C340.172 218.924 342.192 221.952 342.192 226.998L339.127 219.547Z" fill="#F0F3FC"/>
</g>
<path d="M321.376 222.193L321.691 216.345L318.022 215.82L316.952 221.951" fill="#FF9763"/>
<mask id="mask36_9_19183" style="mask-type:luminance" maskUnits="userSpaceOnUse" x="316" y="215" width="6" height="8">
<path fill-rule="evenodd" clip-rule="evenodd" d="M321.376 222.193L321.691 216.345L318.022 215.82L316.952 221.951" fill="white"/>
</mask>
<g mask="url(#mask36_9_19183)">
<path d="M321.048 216.447C318.353 216.125 318.445 220.343 317.051 221.05C315.657 221.757 317.802 215.687 317.802 215.687L319.968 216.372" fill="#E84B23"/>
</g>
<path d="M320.329 215.064C315.192 209.592 319.817 204.376 320.894 207.272C321.971 210.167 322.825 211.316 322.825 211.316L320.329 215.064Z" fill="#3A3530"/>
<path d="M319.521 217.592C312.152 218.325 318.174 209.057 320.107 209.136C322.105 209.217 322.482 216.741 322.482 216.741" fill="#FF9763"/>
<path d="M321.706 219.547C321.706 219.547 320.863 214.229 321.246 213.45C321.246 213.45 318.712 210.622 320.894 207.272C326.534 208.907 328.962 212.315 326.212 218.352C325.927 218.251 325.685 218.012 325.542 217.686C324.594 219.817 322.87 218.313 321.706 219.547Z" fill="#3A3530"/>
<path d="M320.879 214.073C324.265 213.732 323.917 217.879 320.907 217.254L320.879 214.073Z" fill="#FF9763"/>
<path d="M316.606 228.222L313.137 232.817L318.031 234.304L316.606 228.222Z" fill="#274B69"/>
<ellipse cx="314.518" cy="229.087" rx="1.86173" ry="2.34492" fill="#935738"/>
<rect width="2.78646" height="3.34733" transform="matrix(0.921987 0.38722 -0.255918 0.966698 317.52 228.115)" fill="#FE7578"/>
<path d="M318.203 212.152C318.061 212.019 318.031 211.766 318.137 211.588L318.459 211.041C318.565 210.862 318.765 210.825 318.907 210.958C319.049 211.09 319.079 211.343 318.973 211.522L318.651 212.069C318.6 212.154 318.524 212.211 318.44 212.227C318.356 212.243 318.271 212.216 318.203 212.152Z" fill="#190000"/>
<path d="M319.318 209.659C320.12 210.343 320.054 210.91 319.53 210.524C319.006 210.138 318.794 209.213 319.318 209.659Z" fill="#190000"/>
<path d="M317.843 210.937C316.446 210.815 316.056 212.397 316.888 212.714L317.843 210.937Z" fill="#FF9763"/>
<ellipse cx="319.647" cy="214.465" rx="1.07577" ry="1.35498" fill="#E84B23"/>
<path d="M318.006 213.945C317.668 214.169 317.254 214.105 316.968 213.785" stroke="#993443" stroke-width="0.65" stroke-linecap="round" stroke-linejoin="round"/>
<path d="M321.975 215.563C321.989 215.552 322.004 215.543 322.018 215.535L321.974 215.559C321.997 215.547 322.021 215.539 322.046 215.535L321.997 215.544C322.024 215.54 322.052 215.54 322.079 215.544L322.029 215.536C322.059 215.541 322.088 215.551 322.116 215.566L322.071 215.542C322.099 215.557 322.125 215.576 322.149 215.599L322.111 215.562C322.131 215.582 322.149 215.604 322.164 215.629L322.135 215.581C322.149 215.604 322.16 215.63 322.169 215.656L322.15 215.6C322.159 215.628 322.166 215.657 322.169 215.687L322.162 215.624C322.165 215.657 322.165 215.69 322.161 215.722L322.168 215.659C322.164 215.695 322.156 215.73 322.145 215.764L322.164 215.707C322.152 215.741 322.138 215.773 322.12 215.802L322.15 215.754C322.132 215.783 322.112 215.808 322.089 215.831L322.127 215.794C322.108 215.812 322.088 215.827 322.066 215.84L322.111 215.816C322.091 215.827 322.07 215.834 322.049 215.839C322.002 215.856 321.962 215.895 321.937 215.948C321.912 216.002 321.905 216.067 321.917 216.128C321.93 216.188 321.961 216.24 322.004 216.272C322.049 216.301 322.1 216.31 322.149 216.296C322.376 216.225 322.536 215.971 322.54 215.677C322.538 215.39 322.377 215.143 322.153 215.085C322.028 215.047 321.897 215.072 321.786 215.154C321.696 215.22 321.666 215.365 321.718 215.478C321.771 215.591 321.886 215.629 321.975 215.563V215.563Z" fill="#190000"/>
<path d="M322.874 210.206C322.894 210.925 323.133 211.607 323.542 212.108C323.616 212.2 323.734 212.199 323.807 212.107C323.881 212.015 323.881 211.866 323.808 211.774C323.469 211.361 323.269 210.8 323.25 210.206C323.251 210.121 323.215 210.042 323.157 210C323.098 209.957 323.026 209.957 322.968 210C322.91 210.042 322.874 210.121 322.874 210.206Z" fill="#190000"/>
<path d="M333.648 224.508C333.811 225.294 333.752 226.125 333.481 226.862C333.432 226.975 333.461 227.117 333.548 227.185C333.638 227.25 333.752 227.212 333.805 227.1C334.124 226.253 334.196 225.291 334.011 224.383C333.95 224.088 333.587 224.213 333.648 224.508Z" fill="#D6DCF2"/>
<path d="M310.866 211.979C310.12 212.206 309.348 212.261 308.587 212.142C308.484 212.143 308.4 212.248 308.399 212.378C308.402 212.508 308.485 212.612 308.587 212.615C309.382 212.736 310.188 212.675 310.965 212.435C311.2 212.363 311.101 211.907 310.866 211.979Z" fill="#D6DCF2"/>
<path d="M313.329 237.62C313.473 238.178 313.84 238.598 314.295 238.725C314.395 238.759 314.498 238.686 314.526 238.56C314.553 238.434 314.495 238.303 314.395 238.269C314.347 238.257 314.3 238.241 314.255 238.221C314.243 238.216 314.232 238.21 314.221 238.205C314.212 238.201 314.183 238.197 314.21 238.2C314.225 238.208 314.225 238.208 314.21 238.2C314.204 238.196 314.199 238.193 314.194 238.19C314.184 238.185 314.175 238.179 314.166 238.173C314.123 238.146 314.082 238.115 314.042 238.08C314.032 238.072 314.022 238.063 314.012 238.054L314.002 238.045C313.989 238.033 313.989 238.033 314.002 238.045C314.015 238.057 314.015 238.057 314.002 238.045C313.997 238.04 313.993 238.035 313.988 238.03C313.979 238.02 313.97 238.01 313.961 238C313.926 237.961 313.893 237.92 313.863 237.876C313.855 237.865 313.847 237.853 313.839 237.841L313.832 237.829C313.819 237.81 313.822 237.813 313.839 237.841C313.825 237.82 313.812 237.797 313.8 237.773C313.775 237.724 313.752 237.674 313.731 237.621C313.726 237.608 313.721 237.594 313.716 237.58C313.7 237.538 313.73 237.628 313.716 237.581C313.707 237.552 313.699 237.524 313.691 237.495C313.674 237.413 313.623 237.35 313.558 237.329C313.493 237.307 313.424 237.331 313.377 237.391C313.329 237.452 313.311 237.539 313.329 237.62H313.329Z" fill="#D6DCF2"/>
<path d="M323.173 270.129L322.987 270.246C322.921 270.293 322.885 270.388 322.898 270.482C322.899 270.513 322.907 270.544 322.92 270.57L322.949 270.618C322.972 270.647 323.001 270.668 323.032 270.679L323.082 270.687C323.116 270.687 323.148 270.676 323.177 270.655L323.363 270.537C323.429 270.49 323.465 270.396 323.452 270.302C323.451 270.27 323.444 270.24 323.43 270.214L323.401 270.166C323.378 270.137 323.349 270.116 323.318 270.105L323.268 270.097C323.235 270.096 323.202 270.108 323.173 270.129Z" fill="#75AA3C"/>
<path d="M339.076 278.637C339.493 279.316 339.802 280.091 339.985 280.918C340.015 281.04 340.117 281.111 340.215 281.077C340.313 281.043 340.372 280.917 340.348 280.792C340.157 279.925 339.836 279.112 339.4 278.398C339.346 278.289 339.233 278.251 339.143 278.313C339.054 278.379 339.024 278.524 339.076 278.637Z" fill="#190000"/>
<path d="M338.687 278.449C338.673 278.545 338.656 278.64 338.634 278.733C338.623 278.779 338.611 278.825 338.598 278.871C338.591 278.893 338.584 278.916 338.577 278.939C338.574 278.95 338.57 278.961 338.566 278.972C338.575 278.947 338.577 278.942 338.571 278.958C338.509 279.132 338.432 279.297 338.342 279.451C338.29 279.564 338.32 279.709 338.41 279.775C338.5 279.837 338.612 279.8 338.667 279.69C338.861 279.361 338.992 278.979 339.049 278.575C339.074 278.449 339.016 278.321 338.918 278.284C338.818 278.251 338.715 278.324 338.687 278.449V278.449Z" fill="#190000"/>
<path d="M322.482 304.676C322.347 304.855 322.202 305.022 322.048 305.176C322.04 305.184 322.031 305.193 322.023 305.201C322.037 305.187 322.035 305.189 322.022 305.202C322.002 305.22 321.983 305.239 321.963 305.257C321.923 305.294 321.883 305.329 321.843 305.364C321.759 305.435 321.674 305.502 321.586 305.566C321.497 305.632 321.466 305.776 321.519 305.889C321.571 306.002 321.686 306.04 321.776 305.974C322.135 305.713 322.462 305.389 322.748 305.01C322.796 304.951 322.814 304.863 322.797 304.781C322.78 304.699 322.729 304.635 322.664 304.614C322.599 304.592 322.53 304.616 322.482 304.676H322.482Z" fill="#190000"/>
<path d="M322.28 304.353L321.354 304.607C321.255 304.643 321.197 304.772 321.223 304.898C321.253 305.022 321.355 305.095 321.454 305.063L322.38 304.809C322.479 304.774 322.538 304.644 322.511 304.518C322.482 304.394 322.38 304.321 322.28 304.353Z" fill="#190000"/>
<path d="M316.256 198.491L315.975 198.662C315.909 198.709 315.873 198.804 315.886 198.898C315.887 198.929 315.895 198.96 315.908 198.986C315.933 199.039 315.973 199.078 316.02 199.095L316.07 199.103C316.104 199.103 316.136 199.092 316.165 199.071L316.445 198.9C316.512 198.853 316.547 198.758 316.535 198.664C316.534 198.633 316.526 198.602 316.513 198.576C316.488 198.523 316.448 198.484 316.401 198.467L316.351 198.459C316.317 198.459 316.285 198.47 316.256 198.491Z" fill="#E84B23"/>
<path d="M344.812 216.315L344.719 216.549C344.706 216.575 344.698 216.605 344.697 216.637C344.688 216.731 344.723 216.823 344.787 216.872L344.832 216.896C344.864 216.908 344.899 216.908 344.932 216.896L344.977 216.872C345.004 216.852 345.028 216.823 345.044 216.788L345.137 216.553C345.15 216.527 345.158 216.497 345.159 216.466C345.168 216.372 345.133 216.28 345.069 216.23L345.025 216.206C344.992 216.195 344.957 216.195 344.925 216.206L344.88 216.23C344.852 216.25 344.829 216.28 344.812 216.315V216.315Z" fill="#E84B23"/>
<path d="M318.177 249.544C318.042 250.418 318.178 251.324 318.557 252.076C318.687 252.332 319.012 252.095 318.881 251.837C318.552 251.196 318.43 250.421 318.539 249.67C318.564 249.545 318.506 249.417 318.408 249.379C318.308 249.346 318.205 249.419 318.177 249.544V249.544Z" fill="#75AA3C"/>
<path d="M320.851 287.741C320.409 288.177 319.884 288.459 319.328 288.56C319.229 288.595 319.17 288.725 319.197 288.851C319.227 288.975 319.328 289.047 319.428 289.016C320.046 288.894 320.629 288.57 321.116 288.075C321.189 287.983 321.189 287.834 321.116 287.741C321.042 287.652 320.925 287.652 320.851 287.741Z" fill="#75AA3C"/>
<path d="M49.4843 215.441C49.4843 215.441 50.5148 212.316 52.7428 209.908L56.8516 207.552L55.1176 202.283L49.1954 205.641L46.7842 213.23L47.6546 216.989L49.4843 215.441Z" fill="#FF9763"/>
<mask id="mask37_9_19183" style="mask-type:luminance" maskUnits="userSpaceOnUse" x="46" y="202" width="11" height="15">
<path fill-rule="evenodd" clip-rule="evenodd" d="M49.4843 215.441C49.4843 215.441 50.5148 212.316 52.7428 209.908L56.8516 207.552L55.1176 202.283L49.1954 205.641L46.7842 213.23L47.6546 216.989L49.4843 215.441Z" fill="white"/>
</mask>
<g mask="url(#mask37_9_19183)">
<path d="M52.3122 203.668C50.862 203.511 52.3122 209.308 52.0222 211.167C51.7322 213.026 55.4785 209.182 55.4785 209.182L52.7231 204.771" fill="#E84B23"/>
</g>
<path d="M47.6305 205.383L45.7527 222.791L45.7811 222.785C46.9386 222.524 47.9281 221.584 48.4454 220.254L50.9508 213.046C50.9508 213.046 49.2148 212.903 48.4008 215.312L50.3027 204.771L47.6305 205.383Z" fill="#3A3530"/>
<path d="M51.6903 203.767C51.6903 203.767 52.9512 210.075 54.9012 210.8L72.8367 196.66L85.4207 163.298L76.5694 160.122L66.7487 190.13L51.6903 203.767Z" fill="#935738"/>
<mask id="mask38_9_19183" style="mask-type:luminance" maskUnits="userSpaceOnUse" x="51" y="160" width="35" height="51">
<path fill-rule="evenodd" clip-rule="evenodd" d="M51.6903 203.767C51.6903 203.767 52.9512 210.075 54.9012 210.8L72.8367 196.66L85.4207 163.298L76.5694 160.122L66.7487 190.13L51.6903 203.767Z" fill="white"/>
</mask>
<g mask="url(#mask38_9_19183)">
<g opacity="0.16">
<rect width="2.44202" height="54.5441" transform="matrix(0.966686 -0.255965 0.164629 0.986356 48.0815 162.797)" stroke="#190000" stroke-width="0.65" stroke-linecap="round" stroke-linejoin="round"/>
<rect width="2.44202" height="54.5441" transform="matrix(0.966686 -0.255965 0.164629 0.986356 52.5837 161.604)" stroke="#190000" stroke-width="0.65" stroke-linecap="round" stroke-linejoin="round"/>
<rect width="2.44202" height="54.5441" transform="matrix(0.966686 -0.255965 0.164629 0.986356 57.0858 160.412)" stroke="#190000" stroke-width="0.65" stroke-linecap="round" stroke-linejoin="round"/>
<rect width="2.44202" height="54.5441" transform="matrix(0.966686 -0.255965 0.164629 0.986356 61.5879 159.22)" stroke="#190000" stroke-width="0.65" stroke-linecap="round" stroke-linejoin="round"/>
<rect width="2.44202" height="54.5441" transform="matrix(0.966686 -0.255965 0.164629 0.986356 66.09 158.028)" stroke="#190000" stroke-width="0.65" stroke-linecap="round" stroke-linejoin="round"/>
<rect width="2.44202" height="54.5441" transform="matrix(0.966686 -0.255965 0.164629 0.986356 70.592 156.836)" stroke="#190000" stroke-width="0.65" stroke-linecap="round" stroke-linejoin="round"/>
<rect width="2.44202" height="54.5441" transform="matrix(0.966686 -0.255965 0.164629 0.986356 75.0941 155.644)" stroke="#190000" stroke-width="0.65" stroke-linecap="round" stroke-linejoin="round"/>
<rect width="2.44202" height="54.5441" transform="matrix(0.966686 -0.255965 0.164629 0.986356 79.5963 154.452)" stroke="#190000" stroke-width="0.65" stroke-linecap="round" stroke-linejoin="round"/>
</g>
<g opacity="0.16">
<rect width="3.01448" height="44.186" transform="matrix(0.164629 0.986356 -0.966686 0.255965 86.2345 158.506)" stroke="#190000" stroke-width="2.05602" stroke-linecap="round" stroke-linejoin="round"/>
<rect width="3.01448" height="44.186" transform="matrix(0.164629 0.986356 -0.966686 0.255965 87.1809 164.177)" stroke="#190000" stroke-width="2.05602" stroke-linecap="round" stroke-linejoin="round"/>
<rect width="3.01448" height="44.186" transform="matrix(0.164629 0.986356 -0.966686 0.255965 88.1274 169.847)" stroke="#190000" stroke-width="2.05602" stroke-linecap="round" stroke-linejoin="round"/>
<rect width="3.01448" height="44.186" transform="matrix(0.164629 0.986356 -0.966686 0.255965 89.0739 175.518)" stroke="#190000" stroke-width="2.05602" stroke-linecap="round" stroke-linejoin="round"/>
<rect width="3.01448" height="44.186" transform="matrix(0.164629 0.986356 -0.966686 0.255965 90.0203 181.189)" stroke="#190000" stroke-width="2.05602" stroke-linecap="round" stroke-linejoin="round"/>
<rect width="3.01448" height="44.186" transform="matrix(0.164629 0.986356 -0.966686 0.255965 90.9668 186.859)" stroke="#190000" stroke-width="2.05602" stroke-linecap="round" stroke-linejoin="round"/>
<rect width="3.01448" height="44.186" transform="matrix(0.164629 0.986356 -0.966686 0.255965 91.9132 192.53)" stroke="#190000" stroke-width="2.05602" stroke-linecap="round" stroke-linejoin="round"/>
<rect width="3.01448" height="44.186" transform="matrix(0.164629 0.986356 -0.966686 0.255965 92.8596 198.2)" stroke="#190000" stroke-width="2.05602" stroke-linecap="round" stroke-linejoin="round"/>
</g>
<path d="M64.5106 186.916C71.1839 184.635 74.8216 170.243 77.7344 167.506C80.6473 164.769 70.2562 170.962 70.2562 170.962L66.3782 175.606" fill="#6D3417"/>
</g>
<path d="M55.7083 152.059L53.9282 153.925C53.9282 153.925 53.8819 155.325 53.7663 155.973C53.6507 156.621 51.6856 157.269 51.2926 157.632C50.8996 157.995 50.9458 156.803 51.2926 156.466C51.2926 156.466 50.6684 156.284 50.8533 155.792C50.8533 155.792 50.5065 155.238 50.6453 154.88C50.6453 154.88 50.233 154.418 50.6125 153.951C50.992 153.485 50.8071 153.796 50.8071 153.796L51.0152 153.139L54.2056 149.677L55.7083 152.059Z" fill="#FF9763"/>
<mask id="mask39_9_19183" style="mask-type:luminance" maskUnits="userSpaceOnUse" x="50" y="149" width="6" height="9">
<path fill-rule="evenodd" clip-rule="evenodd" d="M55.7083 152.059L53.9282 153.925C53.9282 153.925 53.8819 155.325 53.7663 155.973C53.6507 156.621 51.6856 157.269 51.2926 157.632C50.8996 157.995 50.9458 156.803 51.2926 156.466C51.2926 156.466 50.6684 156.284 50.8533 155.792C50.8533 155.792 50.5065 155.238 50.6453 154.88C50.6453 154.88 50.233 154.418 50.6125 153.951C50.992 153.485 50.8071 153.796 50.8071 153.796L51.0152 153.139L54.2056 149.677L55.7083 152.059Z" fill="white"/>
</mask>
<g mask="url(#mask39_9_19183)">
<path d="M53.9209 149.677C51.068 150.334 54.9995 154.297 54.408 157.496C53.8165 160.695 55.9737 150.616 55.9737 150.616L54.2056 149.677" fill="#E84B23"/>
</g>
<path d="M36.1987 199.324C36.1987 199.324 37.4302 196.339 39.8072 194.216L44.054 192.378L42.6728 186.916L36.5542 189.528L33.6548 196.788L34.275 200.639L36.1987 199.324Z" fill="#FF9763"/>
<mask id="mask40_9_19183" style="mask-type:luminance" maskUnits="userSpaceOnUse" x="33" y="186" width="12" height="15">
<path fill-rule="evenodd" clip-rule="evenodd" d="M36.1987 199.324C36.1987 199.324 37.4302 196.339 39.8072 194.216L44.054 192.378L42.6728 186.916L36.5542 189.528L33.6548 196.788L34.275 200.639L36.1987 199.324Z" fill="white"/>
</mask>
<g mask="url(#mask40_9_19183)">
<path d="M40.7591 187.536C39.2847 187.032 39.3331 193.995 38.9947 195.98C38.6563 197.965 41.17 194.563 41.17 194.563L41.46 189.742" fill="#E84B23"/>
</g>
<path d="M35.0126 189.078L32 206.183L32.0287 206.18C33.1945 206.066 34.2449 205.25 34.8484 203.988L37.8166 197.12C37.8166 197.12 36.097 196.763 35.1282 199.062L37.7142 188.798L35.0126 189.078Z" fill="#3A3530"/>
<path d="M82.9872 161.858L73.2749 156.486L58.1903 176.639L40.0986 187.374C40.0986 187.374 38.9857 194.38 40.9361 197.306L61.1153 186.504L77.093 168.5" fill="#935738"/>
<mask id="mask41_9_19183" style="mask-type:luminance" maskUnits="userSpaceOnUse" x="39" y="156" width="44" height="42">
<path fill-rule="evenodd" clip-rule="evenodd" d="M82.9872 161.858L73.2749 156.486L58.1903 176.639L40.0986 187.374C40.0986 187.374 38.9857 194.38 40.9361 197.306L61.1153 186.504L77.093 168.5" fill="white"/>
</mask>
<g mask="url(#mask41_9_19183)">
<path d="M82.3597 163.708C74.6458 166.575 73.6916 154.526 63.2549 169.873C55.7796 180.865 68.8451 152.617 68.8451 152.617L73.5824 150.578L75.9027 152.491" fill="#6D3417"/>
<g opacity="0.16">
<rect width="2.89808" height="63.2489" transform="matrix(0.928634 0.370997 -0.244203 0.969724 51.0187 139.003)" stroke="#190000" stroke-width="0.65" stroke-linecap="round" stroke-linejoin="round"/>
<rect width="2.89808" height="63.2489" transform="matrix(0.928634 0.370997 -0.244203 0.969724 56.1512 141.053)" stroke="#190000" stroke-width="0.65" stroke-linecap="round" stroke-linejoin="round"/>
<rect width="2.89808" height="63.2489" transform="matrix(0.928634 0.370997 -0.244203 0.969724 61.2838 143.104)" stroke="#190000" stroke-width="0.65" stroke-linecap="round" stroke-linejoin="round"/>
<rect width="2.89808" height="63.2489" transform="matrix(0.928634 0.370997 -0.244203 0.969724 66.4163 145.154)" stroke="#190000" stroke-width="0.65" stroke-linecap="round" stroke-linejoin="round"/>
<rect width="2.89808" height="63.2489" transform="matrix(0.928634 0.370997 -0.244203 0.969724 71.549 147.205)" stroke="#190000" stroke-width="0.65" stroke-linecap="round" stroke-linejoin="round"/>
<rect width="2.89808" height="63.2489" transform="matrix(0.928634 0.370997 -0.244203 0.969724 76.6815 149.255)" stroke="#190000" stroke-width="0.65" stroke-linecap="round" stroke-linejoin="round"/>
<rect width="2.89808" height="63.2489" transform="matrix(0.928634 0.370997 -0.244203 0.969724 81.8141 151.306)" stroke="#190000" stroke-width="0.65" stroke-linecap="round" stroke-linejoin="round"/>
<rect width="2.89802" height="63.2484" transform="matrix(0.928652 0.370952 -0.244171 0.969732 86.9525 153.351)" stroke="#190000" stroke-width="0.65" stroke-linecap="round" stroke-linejoin="round"/>
</g>
<g opacity="0.16">
<rect width="3.49557" height="52.4379" transform="matrix(-0.244203 0.969724 -0.928634 -0.370997 91.8574 162.302)" stroke="#190000" stroke-width="2.40643" stroke-linecap="round" stroke-linejoin="round"/>
<rect width="3.49557" height="52.4379" transform="matrix(-0.244203 0.969724 -0.928634 -0.370997 90.2294 168.767)" stroke="#190000" stroke-width="2.40643" stroke-linecap="round" stroke-linejoin="round"/>
<rect width="3.49554" height="52.4369" transform="matrix(-0.244171 0.969732 -0.928652 -0.370952 88.6046 175.238)" stroke="#190000" stroke-width="2.4064" stroke-linecap="round" stroke-linejoin="round"/>
<rect width="3.49557" height="52.4379" transform="matrix(-0.244203 0.969724 -0.928634 -0.370997 86.9735 181.696)" stroke="#190000" stroke-width="2.40643" stroke-linecap="round" stroke-linejoin="round"/>
<rect width="3.49557" height="52.4379" transform="matrix(-0.244203 0.969724 -0.928634 -0.370997 85.3455 188.161)" stroke="#190000" stroke-width="2.40643" stroke-linecap="round" stroke-linejoin="round"/>
<rect width="3.49557" height="52.4379" transform="matrix(-0.244203 0.969724 -0.928634 -0.370997 83.7175 194.625)" stroke="#190000" stroke-width="2.40643" stroke-linecap="round" stroke-linejoin="round"/>
<rect width="3.49554" height="52.4369" transform="matrix(-0.244171 0.969732 -0.928652 -0.370952 82.0924 201.098)" stroke="#190000" stroke-width="2.4064" stroke-linecap="round" stroke-linejoin="round"/>
<rect width="3.49554" height="52.4369" transform="matrix(-0.244171 0.969732 -0.928652 -0.370952 80.4644 207.563)" stroke="#190000" stroke-width="2.4064" stroke-linecap="round" stroke-linejoin="round"/>
</g>
</g>
<path d="M109.266 134.927L111.379 132.973C111.379 132.973 111.434 131.507 111.571 130.829C111.709 130.15 114.041 129.472 114.508 129.092C114.974 128.712 114.919 129.96 114.508 130.313C114.508 130.313 115.249 130.503 115.029 131.019C115.029 131.019 115.441 131.599 115.276 131.974C115.276 131.974 115.765 132.457 115.315 132.946C114.864 133.435 115.084 133.109 115.084 133.109L114.837 133.797L111.05 137.422L109.266 134.927Z" fill="#FF9763"/>
<mask id="mask42_9_19183" style="mask-type:luminance" maskUnits="userSpaceOnUse" x="109" y="129" width="7" height="9">
<path fill-rule="evenodd" clip-rule="evenodd" d="M109.266 134.927L111.379 132.973C111.379 132.973 111.434 131.507 111.571 130.829C111.709 130.15 114.041 129.472 114.508 129.092C114.974 128.712 114.919 129.96 114.508 130.313C114.508 130.313 115.249 130.503 115.029 131.019C115.029 131.019 115.441 131.599 115.276 131.974C115.276 131.974 115.765 132.457 115.315 132.946C114.864 133.435 115.084 133.109 115.084 133.109L114.837 133.797L111.05 137.422L109.266 134.927Z" fill="white"/>
</mask>
<g mask="url(#mask42_9_19183)">
<path d="M109.777 134.056C110.398 133.881 112.92 135.622 113.23 135.783C113.539 135.944 112.182 136.893 112.182 136.893L109.828 136.046" fill="#E84B23"/>
</g>
<path d="M110.096 133.797C110.096 133.797 112.352 137.832 112.386 138.2L105.509 145.09C104.167 146.281 102.648 147.118 101.043 147.552L86.5309 149.949L90.9445 140.195L101.863 140.486L110.096 133.797Z" fill="#97CC64"/>
<mask id="mask43_9_19183" style="mask-type:luminance" maskUnits="userSpaceOnUse" x="86" y="133" width="27" height="17">
<path fill-rule="evenodd" clip-rule="evenodd" d="M110.096 133.797C110.096 133.797 112.352 137.832 112.386 138.2L105.509 145.09C104.167 146.281 102.648 147.118 101.043 147.552L86.5309 149.949L90.9445 140.195L101.863 140.486L110.096 133.797Z" fill="white"/>
</mask>
<g mask="url(#mask43_9_19183)">
<path d="M90.5609 143.096C91.4311 150.211 98.8806 147.81 102.07 147.212C105.259 146.615 92.758 153.044 92.758 153.044L86.11 152.471L86.531 149.949L89.4217 143.454" fill="#75AA3C"/>
<ellipse cx="103.583" cy="147.498" rx="2.60939" ry="2.22783" fill="#75AA3C"/>
</g>
<path d="M91.3325 140.279L81.8608 136.432C81.8608 136.432 76.9287 135.997 75.1578 136.014C73.3869 136.031 74.3598 139.326 74.3598 139.326C74.3598 139.326 77.3733 150.309 72.3475 156.715C72.3475 156.715 78.2687 166.196 84.8713 165.045C85.6427 164.911 90.8654 152.667 91.5544 144.577" fill="#97CC64"/>
<mask id="mask44_9_19183" style="mask-type:luminance" maskUnits="userSpaceOnUse" x="72" y="136" width="20" height="30">
<path fill-rule="evenodd" clip-rule="evenodd" d="M91.3325 140.279L81.8608 136.432C81.8608 136.432 76.9287 135.997 75.1578 136.014C73.3869 136.031 74.3598 139.326 74.3598 139.326C74.3598 139.326 77.3733 150.309 72.3475 156.715C72.3475 156.715 78.2687 166.196 84.8713 165.045C85.6427 164.911 90.8654 152.667 91.5544 144.577" fill="white"/>
</mask>
<g mask="url(#mask44_9_19183)">
<path d="M77.8259 144.711C75.2545 146.801 74.8055 155.188 77.5211 160.479C86.9589 178.868 68.8149 162.54 68.4814 161.454C68.4814 161.454 67.7228 153.005 67.8185 152.528C67.9143 152.05 71.8572 143.55 71.8572 143.55L75.1177 143.264L77.8259 144.711" fill="#75AA3C"/>
<path d="M86.2941 140.757C87.4313 160.84 75.3568 167.455 75.3568 167.455" stroke="#75AA3C" stroke-width="0.65" stroke-linecap="round" stroke-linejoin="round"/>
</g>
<path d="M84.0311 130.883L83.2716 133.469L82.3398 136.361L86.4494 141.537L88.2875 133.656L84.0311 130.883Z" fill="#FF9763"/>
<mask id="mask45_9_19183" style="mask-type:luminance" maskUnits="userSpaceOnUse" x="82" y="130" width="7" height="12">
<path fill-rule="evenodd" clip-rule="evenodd" d="M84.0311 130.883L83.2716 133.469L82.3398 136.361L86.4494 141.537L88.2875 133.656L84.0311 130.883Z" fill="white"/>
</mask>
<g mask="url(#mask45_9_19183)">
<path d="M86.8362 139.896C87.2467 136.323 85.754 135.196 85.754 135.196C85.754 135.196 89.0291 134.569 89.1626 134.569C89.2961 134.569 86.3084 144.491 86.8362 139.896Z" fill="#E84B23"/>
</g>
<path d="M85.7541 135.196C87.292 135.758 90.497 136.481 90.3291 132.652C90.1086 127.625 87.8928 124.849 87.8928 124.849L82.5635 129.958L84.3051 132.626" fill="#FF9763"/>
<path d="M84.3051 132.626C86.3909 132.42 85.5044 127.569 85.5044 127.569C85.5044 127.569 89.9265 126.259 90.5517 123.82C91.2635 121.043 88.7121 118.746 84.0666 124.669C84.0666 124.669 83.209 123.088 81.7688 126.018C80.5049 128.589 80.7633 132.586 83.4399 134.569L84.3051 132.626Z" fill="#3A3530"/>
<path d="M84.6908 133.542C84.5921 133.526 84.4942 133.502 84.3975 133.473C83.4129 133.169 82.746 132.247 82.9081 131.412C83.0701 130.578 83.9997 130.147 84.9843 130.45C85.4044 130.571 85.7907 130.832 86.1025 131.207" fill="#FF9763"/>
<path d="M74.8732 136.014L65.3118 140.21C64.5684 140.531 63.8613 140.972 63.2082 141.523C63.2082 141.523 53.4852 148.708 52.9248 150.192C52.3643 151.675 55.7083 154.526 55.7083 154.526L66.4494 147.342L78.7298 144.7" fill="#97CC64"/>
<mask id="mask46_9_19183" style="mask-type:luminance" maskUnits="userSpaceOnUse" x="52" y="136" width="27" height="19">
<path fill-rule="evenodd" clip-rule="evenodd" d="M74.8732 136.014L65.3118 140.21C64.5684 140.531 63.8613 140.972 63.2082 141.523C63.2082 141.523 53.4852 148.708 52.9248 150.192C52.3643 151.675 55.7083 154.526 55.7083 154.526L66.4494 147.342L78.7298 144.7" fill="white"/>
</mask>
<g mask="url(#mask46_9_19183)">
<ellipse cx="3.0341" cy="2.12036" rx="3.0341" ry="2.12036" transform="matrix(0.808766 -0.58813 0.416692 0.909048 61.0532 139.899)" fill="#75AA3C"/>
</g>
<rect width="0.656532" height="1.4613" rx="0.328266" transform="matrix(0.929467 -0.368906 0.242704 0.9701 88.2972 128.689)" fill="#190000"/>
<path d="M88.5522 127.175C87.6177 127.489 87.5329 128.052 88.1273 127.903C88.7216 127.755 89.1627 126.969 88.5522 127.175Z" fill="#190000"/>
<path d="M89.6117 128.987C90.9614 129.448 90.9188 131.102 90.0513 131.058L89.6117 128.987Z" fill="#FF9763"/>
<ellipse cx="86.9854" cy="130.883" rx="1.02739" ry="1.29403" fill="#E84B23"/>
<path d="M88.4988 131.526C88.9591 132.127 89.4496 131.799 89.4496 131.799" stroke="#993443" stroke-width="0.65" stroke-linecap="round" stroke-linejoin="round"/>
<path d="M84.6815 131.32C84.6134 131.219 84.5198 131.151 84.4164 131.127C84.2981 131.098 84.1754 131.118 84.0671 131.185C83.8659 131.326 83.7707 131.624 83.8392 131.901C83.8734 132.056 83.9541 132.188 84.0641 132.27C84.108 132.301 84.1598 132.31 84.2086 132.294C84.2813 132.268 84.335 132.191 84.3448 132.096C84.3545 132.002 84.3186 131.91 84.2534 131.862C84.2415 131.853 84.23 131.844 84.2191 131.833L84.2571 131.87C84.2388 131.852 84.2223 131.831 84.2079 131.808L84.2372 131.856C84.2206 131.829 84.2068 131.799 84.1959 131.768L84.2148 131.824C84.2026 131.788 84.1943 131.749 84.19 131.71L84.1967 131.773C84.193 131.736 84.193 131.699 84.1965 131.662L84.1898 131.725C84.1935 131.691 84.2006 131.658 84.2108 131.626L84.1919 131.682C84.2012 131.655 84.213 131.63 84.2271 131.606L84.1977 131.654C84.2113 131.633 84.2269 131.613 84.244 131.596L84.2061 131.633C84.2266 131.613 84.249 131.597 84.2727 131.584L84.2279 131.608C84.2538 131.595 84.2809 131.585 84.3085 131.58L84.2587 131.589C84.2906 131.584 84.3229 131.584 84.3547 131.589L84.3049 131.581C84.3326 131.586 84.3597 131.595 84.3856 131.608L84.3408 131.584C84.3645 131.597 84.387 131.613 84.4076 131.633L84.3696 131.596C84.3868 131.613 84.4025 131.633 84.4163 131.654C84.4515 131.698 84.4992 131.723 84.5489 131.723C84.5985 131.723 84.6461 131.698 84.6815 131.654C84.7165 131.61 84.7363 131.55 84.7364 131.487L84.7297 131.424C84.7211 131.385 84.7045 131.349 84.6815 131.32H84.6815Z" fill="#190000"/>
<path d="M87.1964 143.941C87.1964 143.941 87.0711 141.661 86.4495 141.537L87.5675 137.251L89.0207 139.34L87.1964 143.941Z" fill="#F0F3FC"/>
<path d="M54.8574 147.6L52.6133 149.966C52.6133 149.966 54.3152 154.287 55.7083 154.526L57.4401 153.368C57.4401 153.368 54.3355 149.879 54.8574 147.6Z" fill="#F0F3FC"/>
<path d="M108.295 135.175C109.769 136.031 110.847 139.379 110.942 140.595L112.734 138.376C112.734 138.376 112.11 134.472 110.041 133.775L108.295 135.175Z" fill="#F0F3FC"/>
<path d="M76.0723 156.132C78.278 156.299 79.1594 153.377 79.1594 153.377" stroke="#75AA3C" stroke-width="0.65" stroke-linecap="round" stroke-linejoin="round"/>
<path d="M85.8632 141.537C88.0434 144.987 83.2418 151.283 88.5421 150.772C94.6866 150.179 91.3656 155.242 91.3656 155.242L93.9696 158.572L95.7788 155.68C95.1177 149.632 92.9032 148.128 88.2875 149.516C85.3679 150.393 88.0434 144.695 86.1067 141.263L85.8632 141.537Z" fill="#FFC562"/>
<mask id="mask47_9_19183" style="mask-type:luminance" maskUnits="userSpaceOnUse" x="85" y="141" width="11" height="18">
<path fill-rule="evenodd" clip-rule="evenodd" d="M85.8632 141.537C88.0434 144.987 83.2418 151.283 88.5421 150.772C94.6866 150.179 91.3656 155.242 91.3656 155.242L93.9696 158.572L95.7788 155.68C95.1177 149.632 92.9032 148.128 88.2875 149.516C85.3679 150.393 88.0434 144.695 86.1067 141.263L85.8632 141.537Z" fill="white"/>
</mask>
<g mask="url(#mask47_9_19183)">
<path d="M90.0712 152.583L94.74 148.593L95.2801 150.578L90.3354 154.161L90.0712 152.583Z" fill="#F0F3FC"/>
</g>
<path d="M80.7803 136.341C80.7803 136.341 82.1703 135.777 82.6532 135.389L86.4495 141.537C86.4495 141.537 85.0741 142.714 84.9117 143.766L80.7803 136.341Z" fill="#F0F3FC"/>
<path d="M58.2412 176.715C58.4935 177.154 58.7085 177.626 58.8828 178.122C58.9353 178.234 59.0499 178.272 59.1394 178.207C59.2263 178.139 59.2558 177.997 59.2067 177.884C59.0324 177.387 58.8174 176.916 58.5651 176.476C58.5113 176.366 58.3983 176.329 58.3085 176.391C58.22 176.458 58.1902 176.602 58.2412 176.715Z" fill="#6D3417"/>
<path d="M66.6841 190.467C67.2952 191.306 68.1651 191.771 69.0688 191.74C69.3096 191.731 69.3107 191.258 69.0688 191.268C68.2647 191.297 67.4905 190.883 66.9494 190.133C66.7868 189.907 66.5221 190.242 66.6841 190.467Z" fill="#6D3417"/>
<path d="M70.6587 163.433C71.3814 163.823 71.9945 164.465 72.7986 164.583C73.5212 164.68 74.2447 164.41 74.8081 163.832C74.8806 163.739 74.8806 163.59 74.8081 163.497C74.7339 163.408 74.617 163.408 74.5429 163.497C74.0405 163.998 73.3975 164.217 72.7633 164.105C72.0542 163.975 71.4911 163.372 70.848 163.025C70.7581 162.964 70.6459 163.001 70.5914 163.11C70.5398 163.223 70.5698 163.367 70.6587 163.433H70.6587Z" fill="#6D3417"/>
<path d="M33.7198 201.488V201.722C33.7226 201.851 33.8049 201.955 33.9072 201.958L33.9569 201.95C33.9882 201.939 34.0167 201.918 34.0396 201.889C34.0741 201.844 34.0937 201.784 34.0945 201.722V201.488C34.0917 201.359 34.0094 201.255 33.9072 201.252L33.8574 201.26C33.8261 201.271 33.7976 201.292 33.7747 201.321C33.7402 201.366 33.7206 201.426 33.7198 201.488L33.7198 201.488Z" fill="#190000"/>
<path d="M66.2163 146.211C66.1632 146.338 66.1265 146.474 66.1076 146.615C66.0843 146.774 66.0846 146.936 66.1085 147.095C66.1215 147.154 66.1525 147.205 66.1947 147.236C66.2377 147.268 66.2888 147.276 66.337 147.261C66.3851 147.245 66.4263 147.205 66.4514 147.151C66.4742 147.095 66.4809 147.031 66.4703 146.969C66.4688 146.957 66.4674 146.945 66.4661 146.933L66.4728 146.996C66.4633 146.898 66.4635 146.8 66.4734 146.703L66.4667 146.765C66.4777 146.664 66.499 146.565 66.5303 146.471L66.5113 146.527C66.5203 146.501 66.53 146.475 66.5403 146.45C66.5647 146.394 66.5714 146.329 66.5592 146.268C66.5391 146.176 66.4775 146.108 66.4026 146.096C66.3278 146.084 66.2544 146.129 66.2164 146.211L66.2163 146.211Z" fill="#75AA3C"/>
<path d="M86.6043 124.51C87.457 124.532 88.2121 123.82 88.4342 122.782C88.4923 122.487 88.1306 122.361 88.0724 122.657C87.8954 123.489 87.2882 124.06 86.6043 124.037C86.5369 124.037 86.4745 124.081 86.4406 124.155C86.4068 124.228 86.4068 124.319 86.4406 124.392C86.4745 124.465 86.5369 124.51 86.6043 124.51Z" fill="#190000"/>
<path d="M101.838 140.725C101.774 141.302 101.619 141.857 101.382 142.357C101.258 142.619 101.582 142.857 101.706 142.595C101.974 142.022 102.147 141.385 102.213 140.725C102.213 140.595 102.129 140.49 102.026 140.489C101.923 140.492 101.841 140.596 101.838 140.725Z" fill="#75AA3C"/>
</g>
</g>
</g>
<defs>
<filter id="filter0_d_9_19183" x="0" y="9" width="387.711" height="350" filterUnits="userSpaceOnUse" color-interpolation-filters="sRGB">
<feFlood flood-opacity="0" result="BackgroundImageFix"/>
<feColorMatrix in="SourceAlpha" type="matrix" values="0 0 0 0 0 0 0 0 0 0 0 0 0 0 0 0 0 0 127 0" result="hardAlpha"/>
<feOffset dy="12"/>
<feGaussianBlur stdDeviation="16"/>
<feComposite in2="hardAlpha" operator="out"/>
<feColorMatrix type="matrix" values="0 0 0 0 0 0 0 0 0 0 0 0 0 0 0 0 0 0 0.5 0"/>
<feBlend mode="normal" in2="BackgroundImageFix" result="effect1_dropShadow_9_19183"/>
<feBlend mode="normal" in="SourceGraphic" in2="effect1_dropShadow_9_19183" result="shape"/>
</filter>
<filter id="filter1_d_9_19183" x="32" y="29" width="346.711" height="309" filterUnits="userSpaceOnUse" color-interpolation-filters="sRGB">
<feFlood flood-opacity="0" result="BackgroundImageFix"/>
<feColorMatrix in="SourceAlpha" type="matrix" values="0 0 0 0 0 0 0 0 0 0 0 0 0 0 0 0 0 0 127 0" result="hardAlpha"/>
<feOffset dx="15" dy="15"/>
<feGaussianBlur stdDeviation="4"/>
<feComposite in2="hardAlpha" operator="out"/>
<feColorMatrix type="matrix" values="0 0 0 0 0 0 0 0 0 0 0 0 0 0 0 0 0 0 0.25 0"/>
<feBlend mode="normal" in2="BackgroundImageFix" result="effect1_dropShadow_9_19183"/>
<feBlend mode="normal" in="SourceGraphic" in2="effect1_dropShadow_9_19183" result="shape"/>
</filter>
</defs>
</svg>
