<svg width="132" height="23" viewBox="0 0 132 23" fill="none" xmlns="http://www.w3.org/2000/svg">
<g clip-path="url(#clip0_10_306)">
<path d="M21.0968 8.91256C21.0391 8.74274 20.933 8.59353 20.7915 8.48335C20.65 8.37316 20.4794 8.30681 20.3006 8.29251L15.0714 7.877L12.8086 2.86798C12.7366 2.70665 12.6193 2.56963 12.4711 2.47344C12.3229 2.37726 12.15 2.32602 11.9733 2.32593C11.7966 2.32583 11.6237 2.37687 11.4754 2.4729C11.327 2.56892 11.2097 2.70582 11.1374 2.86707L8.87461 7.877L3.64546 8.29251C3.46976 8.30642 3.3018 8.37066 3.16167 8.47754C3.02153 8.58442 2.91515 8.7294 2.85525 8.89516C2.79536 9.06091 2.78448 9.24041 2.82393 9.41218C2.86338 9.58395 2.95148 9.74072 3.07769 9.86373L6.942 13.6308L5.57532 19.5488C5.53382 19.7279 5.54712 19.9154 5.61349 20.0869C5.67986 20.2584 5.79625 20.4059 5.94753 20.5105C6.09882 20.615 6.27803 20.6716 6.4619 20.673C6.64577 20.6744 6.82582 20.6205 6.97868 20.5183L11.973 17.1888L16.9674 20.5183C17.1236 20.6221 17.3079 20.6755 17.4954 20.6713C17.6828 20.6672 17.8646 20.6058 18.0161 20.4953C18.1677 20.3848 18.2817 20.2306 18.343 20.0533C18.4043 19.8761 18.4098 19.6843 18.3588 19.5039L16.6812 13.6336L20.8418 9.88941C21.1142 9.64359 21.2142 9.26019 21.0968 8.91256Z" fill="#F3CD03"/>
<path d="M48.1116 8.91256C48.054 8.74274 47.9479 8.59353 47.8064 8.48335C47.6649 8.37316 47.4942 8.30681 47.3155 8.29251L42.0863 7.877L39.8235 2.86798C39.7515 2.70665 39.6342 2.56963 39.486 2.47344C39.3378 2.37726 39.1649 2.32602 38.9882 2.32593C38.8115 2.32583 38.6386 2.37687 38.4902 2.4729C38.3419 2.56892 38.2246 2.70582 38.1523 2.86707L35.8895 7.877L30.6603 8.29251C30.4847 8.30642 30.3167 8.37066 30.1766 8.47754C30.0364 8.58442 29.93 8.7294 29.8701 8.89516C29.8102 9.06091 29.7994 9.24041 29.8388 9.41218C29.8783 9.58395 29.9664 9.74072 30.0926 9.86373L33.9569 13.6308L32.5902 19.5488C32.5487 19.7279 32.562 19.9154 32.6284 20.0869C32.6948 20.2584 32.8111 20.4059 32.9624 20.5105C33.1137 20.615 33.2929 20.6716 33.4768 20.673C33.6607 20.6744 33.8407 20.6205 33.9936 20.5183L38.9879 17.1888L43.9823 20.5183C44.1385 20.6221 44.3228 20.6755 44.5102 20.6713C44.6977 20.6672 44.8795 20.6058 45.031 20.4953C45.1826 20.3848 45.2966 20.2306 45.3579 20.0533C45.4192 19.8761 45.4247 19.6843 45.3737 19.5039L43.6961 13.6336L47.8567 9.88941C48.1291 9.64359 48.2291 9.26019 48.1116 8.91256Z" fill="#F3CD03"/>
<path d="M75.1226 8.91256C75.065 8.74274 74.9589 8.59353 74.8174 8.48335C74.6759 8.37316 74.5052 8.30681 74.3265 8.29251L69.0973 7.877L66.8345 2.86798C66.7624 2.70665 66.6452 2.56963 66.497 2.47344C66.3488 2.37726 66.1759 2.32602 65.9992 2.32593C65.8225 2.32583 65.6496 2.37687 65.5012 2.4729C65.3529 2.56892 65.2355 2.70582 65.1633 2.86707L62.9005 7.877L57.6713 8.29251C57.4956 8.30642 57.3277 8.37066 57.1875 8.47754C57.0474 8.58442 56.941 8.7294 56.8811 8.89516C56.8212 9.06091 56.8104 9.24041 56.8498 9.41218C56.8893 9.58395 56.9774 9.74072 57.1036 9.86373L60.9679 13.6308L59.6012 19.5488C59.5597 19.7279 59.573 19.9154 59.6394 20.0869C59.7057 20.2584 59.8221 20.4059 59.9734 20.5105C60.1247 20.615 60.3039 20.6716 60.4878 20.673C60.6717 20.6744 60.8517 20.6205 61.0046 20.5183L65.9989 17.1888L70.9932 20.5183C71.1495 20.6221 71.3337 20.6755 71.5212 20.6713C71.7087 20.6672 71.8905 20.6058 72.042 20.4953C72.1935 20.3848 72.3076 20.2306 72.3689 20.0533C72.4301 19.8761 72.4357 19.6843 72.3847 19.5039L70.7071 13.6336L74.8676 9.88941C75.1401 9.64359 75.24 9.26019 75.1226 8.91256Z" fill="#F3CD03"/>
<path d="M102.137 8.91256C102.079 8.74274 101.973 8.59353 101.831 8.48335C101.69 8.37316 101.519 8.30681 101.341 8.29251L96.1114 7.877L93.8485 2.86798C93.7765 2.70665 93.6593 2.56963 93.511 2.47344C93.3628 2.37726 93.1899 2.32602 93.0132 2.32593C92.8365 2.32583 92.6636 2.37687 92.5153 2.4729C92.3669 2.56892 92.2496 2.70582 92.1773 2.86707L89.9145 7.877L84.6854 8.29251C84.5097 8.30642 84.3417 8.37066 84.2016 8.47754C84.0614 8.58442 83.9551 8.7294 83.8952 8.89516C83.8353 9.06091 83.8244 9.24041 83.8638 9.41218C83.9033 9.58395 83.9914 9.74072 84.1176 9.86373L87.9819 13.6308L86.6152 19.5488C86.5737 19.7279 86.587 19.9154 86.6534 20.0869C86.7198 20.2584 86.8362 20.4059 86.9874 20.5105C87.1387 20.615 87.3179 20.6716 87.5018 20.673C87.6857 20.6744 87.8657 20.6205 88.0186 20.5183L93.0129 17.1888L98.0073 20.5183C98.1635 20.6221 98.3478 20.6755 98.5353 20.6713C98.7228 20.6672 98.9045 20.6058 99.056 20.4953C99.2076 20.3848 99.3217 20.2306 99.3829 20.0533C99.4442 19.8761 99.4497 19.6843 99.3987 19.5039L97.7211 13.6336L101.882 9.88941C102.154 9.64359 102.254 9.26019 102.137 8.91256Z" fill="#F3CD03"/>
<path d="M114.998 13.6308L113.631 19.5488C113.589 19.728 113.601 19.9158 113.667 20.0877C113.734 20.2596 113.85 20.4075 114.001 20.5122C114.153 20.6169 114.332 20.6735 114.516 20.6746C114.701 20.6757 114.881 20.6212 115.033 20.5183L120.028 17.1888L125.022 20.5183C125.178 20.6221 125.363 20.6755 125.55 20.6714C125.738 20.6673 125.919 20.6058 126.071 20.4953C126.222 20.3849 126.337 20.2306 126.398 20.0534C126.459 19.8761 126.465 19.6844 126.414 19.5039L124.736 13.6336L128.897 9.88944C129.03 9.76946 129.125 9.61304 129.17 9.43955C129.216 9.26605 129.209 9.08308 129.151 8.91327C129.094 8.74345 128.988 8.59424 128.846 8.48408C128.705 8.37392 128.534 8.30764 128.355 8.29345L123.126 7.87703L120.863 2.86801C120.791 2.70672 120.674 2.56976 120.526 2.47366C120.377 2.37755 120.205 2.32642 120.028 2.32642C119.851 2.32642 119.678 2.37755 119.53 2.47366C119.382 2.56976 119.264 2.70672 119.192 2.86801L116.929 7.87703L111.7 8.29254C111.525 8.30645 111.357 8.37069 111.216 8.47757C111.076 8.58445 110.97 8.72943 110.91 8.89518C110.85 9.06094 110.839 9.24044 110.879 9.41221C110.918 9.58398 111.006 9.74074 111.132 9.86376L114.998 13.6308ZM117.615 9.66288C117.778 9.64998 117.936 9.59328 118.07 9.49871C118.204 9.40414 118.31 9.27519 118.378 9.12538L120.028 5.47387L121.678 9.12538C121.745 9.27519 121.852 9.40414 121.986 9.49871C122.12 9.59328 122.277 9.64998 122.441 9.66288L126.084 9.95181L123.084 12.6521C122.824 12.887 122.72 13.2484 122.815 13.5859L123.965 17.608L120.538 15.3231C120.387 15.2222 120.21 15.1683 120.029 15.1683C119.848 15.1683 119.671 15.2222 119.521 15.3231L115.94 17.7107L116.903 13.5409C116.938 13.3876 116.933 13.2277 116.889 13.0767C116.845 12.9257 116.762 12.7887 116.65 12.6787L113.863 9.9619L117.615 9.66288Z" fill="#F3CD03"/>
</g>
<defs>
<clipPath id="clip0_10_306">
<rect width="130.068" height="22.0136" fill="white" transform="translate(0.965942 0.493164)"/>
</clipPath>
</defs>
</svg>
